<?xml version="1.0" encoding="UTF-8" standalone="no"?>
<!DOCTYPE svg PUBLIC "-//W3C//DTD SVG 1.1//EN" "http://www.w3.org/Graphics/SVG/1.1/DTD/svg11.dtd">
<svg xmlns="http://www.w3.org/2000/svg" version="1.1" viewBox="0 0 1024 600">
<g stroke-width="2.00" fill="none" stroke-linecap="butt">
<path stroke="#b0a4f6" vector-effect="non-scaling-stroke" d="
  M 625.27 110.69
  Q 624.63 145.57 625.30 180.44
  A 0.89 0.88 -75.6 0 0 625.74 181.19
  L 701.51 224.97
  Q 702.50 225.54 702.50 224.40
  L 702.50 137.23
  A 1.85 1.84 -75.2 0 0 701.58 135.63
  L 626.11 92.06
  Q 624.91 91.37 624.98 92.76
  Q 625.43 101.96 625.27 110.69"
/>
<path stroke="#8a8a8f" vector-effect="non-scaling-stroke" d="
  M 176.45 188.73
  C 165.77 189.72 155.31 189.35 151.50 178.25
  Q 146.46 163.56 150.96 148.00
  C 155.77 131.33 174.78 132.96 187.55 136.84
  A 0.87 0.86 15.1 0 0 188.65 136.22
  L 191.88 122.70
  A 1.26 1.24 18.5 0 0 191.15 121.27
  C 181.80 117.18 169.13 116.33 159.27 117.93
  C 141.17 120.86 133.79 133.60 131.21 150.79
  Q 128.97 165.75 132.25 180.00
  C 137.26 201.76 155.88 207.73 176.00 205.97
  Q 185.59 205.13 194.47 200.24
  A 1.51 1.51 -14.4 0 0 195.25 198.92
  L 195.19 156.06
  A 0.52 0.52 1.1 0 0 194.69 155.54
  Q 180.13 154.88 165.56 155.54
  A 0.54 0.53 89.4 0 0 165.05 156.07
  L 165.00 170.73
  A 0.71 0.70 -89.6 0 0 165.69 171.44
  L 176.37 171.49
  A 0.89 0.86 1.0 0 1 177.25 172.37
  L 176.96 188.18
  A 0.56 0.55 88.3 0 1 176.45 188.73"
/>
<path stroke="#8a8a8f" vector-effect="non-scaling-stroke" d="
  M 317.45 169.06
  L 317.46 203.33
  A 1.37 1.33 -89.8 0 0 318.78 204.70
  L 334.76 204.75
  A 0.99 0.99 0.0 0 0 335.75 203.76
  L 335.75 121.19
  A 0.69 0.69 0.0 0 0 335.06 120.50
  L 318.31 120.50
  A 0.56 0.56 -89.5 0 0 317.75 121.05
  L 317.56 151.06
  A 0.52 0.52 -0.6 0 1 317.05 151.58
  L 293.93 151.81
  A 0.50 0.49 89.4 0 1 293.43 151.31
  L 293.26 121.40
  A 0.87 0.83 89.7 0 0 292.42 120.53
  L 275.68 120.67
  A 0.52 0.50 -89.4 0 0 275.18 121.18
  Q 274.74 161.05 274.99 200.92
  C 275.01 202.72 274.34 205.00 277.09 204.83
  C 282.19 204.52 287.41 204.76 292.45 204.69
  A 0.81 0.81 -0.4 0 0 293.25 203.88
  L 293.25 169.16
  A 0.66 0.66 -0.2 0 1 293.91 168.50
  L 316.94 168.56
  A 0.51 0.50 0.0 0 1 317.45 169.06"
/>
<path stroke="#8a8a8f" vector-effect="non-scaling-stroke" d="
  M 422.81 148.68
  L 422.75 121.48
  A 0.98 0.97 90.0 0 0 421.78 120.50
  L 405.37 120.50
  A 0.81 0.81 0.0 0 0 404.56 121.31
  L 404.50 203.86
  A 0.87 0.84 89.7 0 0 405.35 204.73
  L 417.15 204.51
  A 1.29 1.22 87.5 0 0 418.33 203.15
  Q 418.12 199.98 419.24 200.88
  C 428.65 208.41 449.33 209.32 455.44 196.44
  C 460.77 185.19 461.92 160.80 452.54 150.97
  C 445.33 143.43 431.85 144.57 423.26 148.96
  A 0.31 0.31 76.6 0 1 422.81 148.68"
/>
<path stroke="#8a8a8f" vector-effect="non-scaling-stroke" d="
  M 222.85 132.43
  A 10.10 10.10 0.0 0 0 212.75 122.33
  A 10.10 10.10 0.0 0 0 202.65 132.43
  A 10.10 10.10 0.0 0 0 212.75 142.53
  A 10.10 10.10 0.0 0 0 222.85 132.43"
/>
<path stroke="#8a8a8f" vector-effect="non-scaling-stroke" d="
  M 254.83 146.68
  L 255.00 131.50
  A 0.55 0.54 1.7 0 0 254.48 130.96
  Q 245.88 130.40 237.56 131.02
  A 0.55 0.54 87.8 0 0 237.06 131.57
  L 236.94 147.18
  A 0.64 0.62 -7.1 0 1 236.45 147.79
  L 228.07 149.94
  A 0.79 0.76 82.9 0 0 227.50 150.70
  L 227.50 161.49
  A 0.88 0.82 0.7 0 0 228.36 162.31
  L 236.44 162.50
  A 0.55 0.50 -88.9 0 1 236.93 163.06
  Q 236.89 174.10 237.12 185.14
  Q 237.28 193.00 238.59 196.19
  C 242.49 205.73 254.86 207.46 264.02 205.48
  C 266.19 205.01 268.64 205.40 268.38 202.14
  C 268.13 198.95 268.25 195.69 268.25 192.37
  A 0.92 0.92 -1.8 0 0 267.27 191.45
  C 261.27 191.84 255.21 191.96 254.90 184.33
  Q 254.48 173.66 254.98 162.99
  A 0.54 0.53 -89.4 0 1 255.50 162.47
  L 267.07 162.26
  A 0.94 0.87 -1.0 0 0 267.99 161.38
  L 267.84 147.93
  A 0.54 0.52 0.0 0 0 267.31 147.42
  L 255.32 147.19
  A 0.50 0.50 -83.7 0 1 254.83 146.68"
/>
<path stroke="#a19edc" vector-effect="non-scaling-stroke" d="
  M 874.31 230.57
  C 874.88 201.11 874.39 171.56 874.50 142.08
  Q 874.51 141.31 873.84 141.69
  L 797.45 185.72
  A 0.90 0.88 -15.3 0 0 797.00 186.49
  L 797.00 274.55
  A 0.51 0.51 75.0 0 0 797.76 274.99
  L 874.05 231.02
  A 0.52 0.52 -15.0 0 0 874.31 230.57"
/>
<path stroke="#b0a4f6" vector-effect="non-scaling-stroke" d="
  M 711.49 230.94
  C 736.79 245.88 762.27 260.61 787.87 275.07
  A 0.38 0.38 14.7 0 0 788.44 274.74
  L 788.50 187.49
  A 2.26 2.25 -75.0 0 0 787.38 185.54
  Q 750.14 163.75 711.98 141.98
  C 710.14 140.93 711.00 143.77 711.00 144.50
  Q 710.90 166.79 711.06 230.19
  A 0.87 0.86 -75.0 0 0 711.49 230.94"
/>
<path stroke="#8a8a8f" vector-effect="non-scaling-stroke" d="
  M 221.74 148.22
  A 0.96 0.96 0.0 0 0 220.78 147.26
  L 204.46 147.26
  A 0.96 0.96 0.0 0 0 203.50 148.22
  L 203.50 203.70
  A 0.96 0.96 0.0 0 0 204.46 204.66
  L 220.78 204.66
  A 0.96 0.96 0.0 0 0 221.74 203.70
  L 221.74 148.22"
/>
<path stroke="#8a8a8f" vector-effect="non-scaling-stroke" d="
  M 382.46 201.32
  Q 383.95 200.44 383.76 202.16
  Q 383.48 204.67 385.25 204.69
  Q 390.25 204.75 395.57 204.75
  A 0.68 0.67 0.0 0 0 396.25 204.08
  L 396.19 148.06
  A 0.55 0.54 2.3 0 0 395.68 147.52
  Q 387.30 146.77 378.94 147.63
  A 0.58 0.56 -3.4 0 0 378.43 148.19
  L 378.26 187.36
  A 2.31 2.26 78.2 0 1 376.94 189.43
  C 370.17 192.54 361.88 193.76 361.70 183.53
  Q 361.38 165.79 361.43 148.05
  A 0.53 0.52 2.9 0 0 360.94 147.52
  Q 352.35 146.88 344.00 147.48
  A 0.81 0.81 -2.3 0 0 343.25 148.29
  Q 343.25 166.75 343.17 184.25
  C 343.09 199.16 348.81 206.11 364.07 206.27
  Q 373.99 206.37 382.46 201.32"
/>
<path stroke="#a5a5a5" vector-effect="non-scaling-stroke" d="
  M 199.00 351.90
  Q 164.52 350.46 130.56 356.54
  Q 129.38 356.75 129.46 357.71
  A 0.51 0.45 -7.3 0 0 130.05 358.11
  Q 164.29 352.52 199.00 353.21"
/>
<path stroke="#908f90" vector-effect="non-scaling-stroke" d="
  M 199.00 353.21
  Q 200.76 355.18 201.80 358.78
  A 0.41 0.40 -8.9 0 1 201.42 359.29
  Q 166.47 360.34 131.66 368.89
  A 3.18 3.15 10.7 0 0 129.84 370.12
  C 129.23 370.98 130.58 371.04 131.16 370.89
  Q 166.14 361.93 202.43 360.74
  A 0.88 0.85 -14.9 0 1 203.20 361.17
  C 217.31 385.49 241.13 391.01 266.79 395.00"
/>
<path stroke="#808080" vector-effect="non-scaling-stroke" d="
  M 266.79 395.00
  L 264.50 397.21"
/>
<path stroke="#908f90" vector-effect="non-scaling-stroke" d="
  M 264.50 397.21
  Q 258.44 402.62 255.96 411.52
  Q 255.47 413.30 253.83 414.12
  Q 247.55 417.25 240.25 417.49
  C 225.86 417.97 219.72 410.32 212.44 399.56
  C 207.62 392.44 196.43 385.94 187.65 389.33
  Q 185.27 390.26 186.75 392.35
  Q 188.41 394.69 190.88 395.92
  Q 201.63 401.26 206.83 412.11
  C 216.05 431.32 234.16 436.10 253.90 431.77
  A 0.49 0.49 -6.7 0 1 254.50 432.24
  Q 254.77 444.15 253.97 455.14"
/>
<path stroke="#ceedf8" vector-effect="non-scaling-stroke" d="
  M 253.97 455.14
  Q 237.97 456.92 222.78 463.49
  C 214.60 467.04 200.89 475.08 202.94 485.97
  C 205.97 502.12 241.20 510.64 253.71 512.50"
/>
<path stroke="#bfddf2" vector-effect="non-scaling-stroke" d="
  M 253.71 512.50
  Q 261.65 514.19 269.75 514.79"
/>
<path stroke="#d3edf6" vector-effect="non-scaling-stroke" d="
  M 269.75 514.79
  L 275.03 515.22"
/>
<path stroke="#bfddf2" vector-effect="non-scaling-stroke" d="
  M 275.03 515.22
  L 291.50 515.96"
/>
<path stroke="#ceedf8" vector-effect="non-scaling-stroke" d="
  M 291.50 515.96
  L 296.00 515.96"
/>
<path stroke="#bfddf2" vector-effect="non-scaling-stroke" d="
  M 296.00 515.96
  Q 304.79 516.30 313.50 515.21"
/>
<path stroke="#ceedf8" vector-effect="non-scaling-stroke" d="
  M 313.50 515.21
  L 317.00 514.96"
/>
<path stroke="#bfddf2" vector-effect="non-scaling-stroke" d="
  M 317.00 514.96
  L 333.50 512.96"
/>
<path stroke="#ceedf8" vector-effect="non-scaling-stroke" d="
  M 333.50 512.96
  Q 353.49 510.30 371.63 501.56
  C 392.67 491.43 391.67 475.16 371.19 465.31
  Q 353.42 456.77 333.26 454.40"
/>
<path stroke="#908f90" vector-effect="non-scaling-stroke" d="
  M 333.26 454.40
  Q 333.36 442.60 333.00 420.25
  Q 332.89 413.54 330.54 408.00"
/>
<path stroke="#808080" vector-effect="non-scaling-stroke" d="
  M 330.54 408.00
  Q 327.49 400.28 320.67 395.17"
/>
<path stroke="#908f90" vector-effect="non-scaling-stroke" d="
  M 320.67 395.17
  C 344.95 392.18 371.83 385.95 383.20 361.30
  A 1.01 0.99 -76.4 0 1 384.13 360.72
  Q 421.19 361.83 456.22 370.94
  C 458.12 371.43 457.80 369.54 456.37 369.16
  Q 421.22 359.84 384.95 359.32
  A 0.42 0.38 9.0 0 1 384.54 358.82
  L 386.22 353.92
  A 0.90 0.63 5.3 0 1 386.99 353.48
  Q 421.25 352.13 455.03 357.88
  C 455.81 358.01 458.22 359.08 457.83 357.29
  A 0.89 0.80 2.5 0 0 457.21 356.68
  Q 454.16 355.87 452.19 355.56
  Q 419.91 350.51 387.35 352.00
  A 0.50 0.50 5.0 0 1 386.84 351.40
  Q 389.29 339.67 389.86 327.99
  C 390.89 306.83 387.67 290.42 372.64 274.48
  A 1.42 1.41 -60.3 0 1 372.29 273.19
  Q 376.55 254.34 369.59 236.18
  A 0.97 0.95 -8.5 0 0 368.75 235.57
  C 354.76 234.64 340.35 242.32 329.14 250.14
  A 2.01 2.00 33.9 0 1 327.54 250.45
  Q 292.05 242.21 255.82 251.17
  A 3.23 3.22 55.5 0 1 253.20 250.68
  C 241.86 242.78 227.08 234.68 212.68 235.57
  A 1.13 1.12 8.8 0 0 211.69 236.29
  Q 204.20 255.69 210.02 275.94
  A 1.12 1.10 -32.8 0 1 209.79 276.98
  C 191.08 298.80 191.32 326.11 199.00 351.90"
/>
<path stroke="#111010" vector-effect="non-scaling-stroke" d="
  M 320.67 395.17
  Q 316.56 395.07 300.69 395.44
  Q 294.21 395.58 266.79 395.00"
/>
<path stroke="#363536" vector-effect="non-scaling-stroke" d="
  M 199.00 353.21
  Q 199.59 352.28 199.00 351.90"
/>
<path stroke="#111010" vector-effect="non-scaling-stroke" d="
  M 264.50 397.21
  Q 264.37 400.45 266.93 399.77
  C 272.25 398.36 277.37 398.34 285.31 397.94
  C 300.72 397.17 317.34 396.46 328.25 408.00
  Q 329.33 409.15 330.54 408.00"
/>
<path stroke="#5f7d89" vector-effect="non-scaling-stroke" d="
  M 333.26 454.40
  C 333.24 458.17 332.90 462.53 333.77 465.82
  C 335.42 472.08 339.34 473.97 344.28 477.27
  A 1.26 1.26 11.7 0 1 344.80 478.06
  Q 345.59 481.93 341.35 482.28"
/>
<path stroke="#506d83" vector-effect="non-scaling-stroke" d="
  M 341.35 482.28
  Q 334.42 481.79 328.35 479.88"
/>
<path stroke="#647d87" vector-effect="non-scaling-stroke" d="
  M 328.35 479.88
  C 316.50 474.68 317.39 464.86 317.46 452.50"
/>
<path stroke="#908f90" vector-effect="non-scaling-stroke" d="
  M 317.46 452.50
  C 317.80 444.15 318.66 431.02 316.09 423.15
  C 315.96 422.74 312.76 415.00 312.75 419.19
  Q 312.72 435.59 312.79 452.00"
/>
<path stroke="#647d87" vector-effect="non-scaling-stroke" d="
  M 312.79 452.00
  Q 312.72 464.00 312.73 476.00
  Q 312.74 483.77 319.00 488.04"
/>
<path stroke="#506d83" vector-effect="non-scaling-stroke" d="
  M 319.00 488.04
  Q 320.73 492.16 317.09 493.39"
/>
<path stroke="#5f7d89" vector-effect="non-scaling-stroke" d="
  M 317.09 493.39
  L 314.29 493.75"
/>
<path stroke="#506d83" vector-effect="non-scaling-stroke" d="
  M 314.29 493.75
  Q 308.10 492.50 302.88 489.21"
/>
<path stroke="#5f7d89" vector-effect="non-scaling-stroke" d="
  M 302.88 489.21
  C 292.35 480.58 296.22 466.84 295.46 452.75"
/>
<path stroke="#908f90" vector-effect="non-scaling-stroke" d="
  M 295.46 452.75
  Q 295.96 435.14 295.76 417.52
  C 295.73 415.06 296.01 412.01 292.30 413.70
  A 0.96 0.95 -12.8 0 0 291.75 414.56
  L 291.79 452.50"
/>
<path stroke="#5f7d89" vector-effect="non-scaling-stroke" d="
  M 291.79 452.50
  C 291.91 467.12 293.80 479.67 286.71 487.25"
/>
<path stroke="#506d83" vector-effect="non-scaling-stroke" d="
  M 286.71 487.25
  Q 280.57 493.15 272.00 493.79"
/>
<path stroke="#647d87" vector-effect="non-scaling-stroke" d="
  M 272.00 493.79
  L 270.26 493.73"
/>
<path stroke="#506d83" vector-effect="non-scaling-stroke" d="
  M 270.26 493.73
  Q 266.40 492.04 269.13 487.53"
/>
<path stroke="#647d87" vector-effect="non-scaling-stroke" d="
  M 269.13 487.53
  C 275.29 484.16 275.03 479.04 274.96 471.75
  Q 274.70 444.66 274.69 418.23
  Q 274.69 416.46 273.70 417.93
  Q 270.69 422.37 270.25 427.75
  Q 269.72 434.27 270.00 462.50
  Q 270.12 474.51 259.69 479.60"
/>
<path stroke="#506d83" vector-effect="non-scaling-stroke" d="
  M 259.69 479.60
  Q 253.78 481.80 247.25 482.04"
/>
<path stroke="#5f7d89" vector-effect="non-scaling-stroke" d="
  M 247.25 482.04
  Q 244.95 482.25 242.95 481.24
  A 1.24 1.22 4.4 0 1 242.32 480.52
  Q 241.36 477.61 244.31 476.31
  Q 257.61 470.45 253.97 455.14"
/>
<path stroke="#8ecbeb" vector-effect="non-scaling-stroke" d="
  M 247.25 482.04
  C 255.40 491.33 255.64 500.29 253.71 512.50"
/>
<path stroke="#8ecbeb" vector-effect="non-scaling-stroke" d="
  M 317.00 514.96
  Q 318.64 504.21 317.09 493.39"
/>
<path stroke="#92cbe9" vector-effect="non-scaling-stroke" d="
  M 328.35 479.88
  Q 322.68 482.92 319.00 488.04"
/>
<path stroke="#8ecbeb" vector-effect="non-scaling-stroke" d="
  M 333.50 512.96
  Q 333.10 505.56 333.33 498.16
  C 333.55 491.25 336.39 486.68 341.35 482.28"
/>
<path stroke="#8ecbeb" vector-effect="non-scaling-stroke" d="
  M 302.88 489.21
  Q 301.72 490.20 300.66 491.11
  C 295.49 495.58 296.51 509.44 296.00 515.96"
/>
<path stroke="#8ecbeb" vector-effect="non-scaling-stroke" d="
  M 291.50 515.96
  C 291.64 507.81 291.89 496.99 286.87 490.09
  A 1.48 0.70 -77.5 0 1 286.67 489.20
  L 286.71 487.25"
/>
<path stroke="#ceedf8" vector-effect="non-scaling-stroke" d="
  M 295.46 452.75
  L 291.79 452.50"
/>
<path stroke="#92cbe9" vector-effect="non-scaling-stroke" d="
  M 275.03 515.22
  C 274.97 510.87 275.45 496.48 272.00 493.79"
/>
<path stroke="#92cbe9" vector-effect="non-scaling-stroke" d="
  M 269.13 487.53
  Q 267.90 486.71 266.86 485.51
  C 264.73 483.05 262.23 481.57 259.69 479.60"
/>
<path stroke="#d3edf6" vector-effect="non-scaling-stroke" d="
  M 317.46 452.50
  L 312.79 452.00"
/>
<path stroke="#92cbe9" vector-effect="non-scaling-stroke" d="
  M 270.26 493.73
  Q 269.81 503.20 270.25 512.75
  Q 270.29 513.57 269.75 514.79"
/>
<path stroke="#8ecbeb" vector-effect="non-scaling-stroke" d="
  M 314.29 493.75
  Q 311.66 504.40 313.50 515.21"
/>
<path stroke="#b0a4f6" vector-effect="non-scaling-stroke" d="
  M 711.75 330.45
  L 787.85 374.42
  Q 788.50 374.79 788.50 374.04
  L 788.50 285.85
  A 0.90 0.87 -75.6 0 0 788.06 285.08
  L 711.87 241.31
  A 0.58 0.58 15.0 0 0 711.00 241.81
  L 711.00 329.16
  A 1.49 1.48 15.0 0 0 711.75 330.45"
/>
<path stroke="#d3edf6" vector-effect="non-scaling-stroke" d="
  M 189.30 409.18
  C 195.33 410.35 190.74 397.97 189.42 398.06
  A 0.78 0.71 -84.8 0 0 188.77 398.66
  L 187.13 406.19
  Q 186.60 408.66 189.30 409.18"
/>
<path stroke="#808080" vector-effect="non-scaling-stroke" d="
  M 541.31 410.50
  L 547.49 410.32
  A 0.54 0.50 89.5 0 1 548.00 410.86
  L 548.00 417.30
  A 0.78 0.77 6.6 0 0 548.60 418.05
  C 551.78 418.76 551.50 418.13 551.50 415.40
  Q 551.50 409.03 551.50 402.67
  C 551.50 399.79 551.98 398.96 548.50 399.72
  A 0.64 0.63 -6.2 0 0 548.00 400.34
  L 548.00 406.75
  A 0.51 0.50 -0.6 0 1 547.50 407.25
  L 541.21 407.33
  A 0.47 0.46 5.0 0 1 540.74 406.79
  Q 541.29 403.88 540.75 401.00
  A 1.93 1.87 0.9 0 0 539.25 399.50
  Q 538.44 399.33 537.75 399.59
  A 0.78 0.71 79.7 0 0 537.30 400.31
  L 537.42 417.56
  A 0.51 0.49 88.9 0 0 537.93 418.07
  L 540.45 417.98
  A 0.52 0.49 88.3 0 0 540.92 417.45
  L 540.81 411.06
  A 0.55 0.52 88.4 0 1 541.31 410.50"
/>
<path stroke="#808080" vector-effect="non-scaling-stroke" d="
  M 584.62 404.94
  Q 582.75 405.65 583.09 403.68
  Q 583.97 398.61 580.23 399.60
  A 0.67 0.65 82.6 0 0 579.75 400.24
  L 579.75 417.25
  A 0.79 0.74 -79.5 0 0 580.21 417.97
  Q 581.45 418.47 582.71 418.10
  A 0.72 0.66 83.6 0 0 583.20 417.43
  L 583.30 409.82
  A 1.25 1.07 72.7 0 1 583.67 408.96
  Q 585.23 407.56 587.32 407.85
  A 0.70 0.68 88.7 0 1 587.90 408.42
  Q 588.68 412.89 588.25 415.25
  Q 587.52 419.21 591.03 418.16
  A 0.71 0.67 -9.8 0 0 591.53 417.50
  L 591.27 406.30
  A 1.61 1.44 7.3 0 0 590.05 404.89
  Q 586.86 404.08 584.62 404.94"
/>
<path stroke="#808080" vector-effect="non-scaling-stroke" d="
  M 598.2268 400.1360
  A 0.71 0.71 0.0 0 0 597.4924 399.4512
  L 595.2138 399.5308
  A 0.71 0.71 0.0 0 0 594.5290 400.2651
  L 594.5932 402.1040
  A 0.71 0.71 0.0 0 0 595.3276 402.7888
  L 597.6062 402.7092
  A 0.71 0.71 0.0 0 0 598.2910 401.9749
  L 598.2268 400.1360"
/>
<path stroke="#808080" vector-effect="non-scaling-stroke" d="
  M 603.41 417.40
  Q 607.49 419.03 611.85 417.79
  A 1.33 1.33 -12.2 0 0 612.80 416.32
  C 612.39 413.63 608.12 415.37 606.12 414.88
  A 1.98 1.79 7.9 0 1 604.60 413.06
  L 604.75 404.06
  A 0.97 0.83 -16.4 0 1 605.24 403.31
  C 607.89 401.83 613.36 404.40 612.72 400.83
  A 0.96 0.94 1.0 0 0 611.97 400.07
  C 608.54 399.38 602.50 398.85 601.26 402.84
  C 600.37 405.68 600.75 411.29 601.29 414.74
  Q 601.59 416.67 603.41 417.40"
/>
<path stroke="#808080" vector-effect="non-scaling-stroke" d="
  M 561.12 408.27
  C 563.18 413.80 552.70 407.06 554.00 415.77
  Q 554.47 418.88 557.53 418.19
  Q 560.48 417.52 564.11 418.05
  A 0.56 0.55 -85.6 0 0 564.75 417.50
  C 564.75 409.83 567.21 402.95 555.75 404.75
  Q 553.70 405.07 554.54 407.05
  A 0.66 0.61 -14.7 0 0 555.24 407.42
  Q 557.90 407.03 560.46 407.68
  A 0.98 0.94 -2.0 0 1 561.12 408.27"
/>
<path stroke="#808080" vector-effect="non-scaling-stroke" d="
  M 571.13 407.93
  Q 572.33 407.19 575.64 407.40
  A 1.40 1.39 18.4 0 0 576.87 406.79
  C 578.60 404.21 567.15 402.47 567.55 408.60
  C 567.70 410.77 567.92 411.87 570.34 412.10
  Q 572.07 412.26 573.43 413.34
  Q 574.61 414.29 573.11 415.42
  A 3.03 3.02 -54.1 0 1 570.34 415.87
  Q 567.27 414.84 567.50 417.03
  A 1.08 1.08 -88.6 0 0 568.40 417.98
  Q 570.86 418.40 573.25 418.39
  C 578.59 418.38 579.10 410.47 573.06 410.19
  Q 571.57 410.12 570.93 408.71
  A 0.63 0.58 61.9 0 1 571.13 407.93"
/>
<path stroke="#808080" vector-effect="non-scaling-stroke" d="
  M 626.6665 409.4294
  A 4.81 4.81 0.0 0 0 621.8481 404.6278
  L 619.3281 404.6322
  A 4.81 4.81 0.0 0 0 614.5265 409.4506
  L 614.5335 413.4706
  A 4.81 4.81 0.0 0 0 619.3519 418.2722
  L 621.8719 418.2678
  A 4.81 4.81 0.0 0 0 626.6735 413.4494
  L 626.6665 409.4294"
/>
<path stroke="#808080" vector-effect="non-scaling-stroke" d="
  M 643.43 417.92
  Q 650.35 419.39 650.76 413.84
  C 651.13 408.69 650.49 402.11 642.71 405.30
  A 1.04 1.01 47.3 0 1 641.82 405.25
  C 637.91 403.14 638.75 406.91 638.75 409.00
  C 638.75 413.26 639.03 417.82 638.66 422.04
  Q 638.47 424.24 641.71 423.06
  A 0.89 0.75 85.9 0 0 642.21 422.37
  L 642.79 418.29
  A 0.55 0.46 10.3 0 1 643.43 417.92"
/>
<path stroke="#808080" vector-effect="non-scaling-stroke" d="
  M 598.26 405.26
  A 0.52 0.52 0.0 0 0 597.74 404.74
  L 595.02 404.74
  A 0.52 0.52 0.0 0 0 594.50 405.26
  L 594.50 417.72
  A 0.52 0.52 0.0 0 0 595.02 418.24
  L 597.74 418.24
  A 0.52 0.52 0.0 0 0 598.26 417.72
  L 598.26 405.26"
/>
<path stroke="#808080" vector-effect="non-scaling-stroke" d="
  M 633.80 409.01
  C 636.95 408.56 637.71 403.10 633.85 405.39
  A 1.12 1.10 42.3 0 1 632.82 405.43
  Q 628.93 403.56 629.14 406.71
  C 629.38 410.11 629.25 413.67 629.25 417.38
  A 0.80 0.80 -83.7 0 0 629.87 418.16
  Q 633.51 419.01 632.75 415.75
  Q 632.17 413.25 633.18 409.55
  A 0.78 0.73 2.0 0 1 633.80 409.01"
/>
<path stroke="#808080" vector-effect="non-scaling-stroke" d="
  M 775.30 465.05
  L 787.37 465.00
  A 0.91 0.89 -87.9 0 0 788.26 464.15
  L 788.99 454.81
  A 0.75 0.73 -87.5 0 0 788.26 454.00
  L 775.27 454.00
  A 0.51 0.51 89.4 0 1 774.76 453.50
  C 774.67 450.73 774.25 444.74 775.63 442.42
  C 777.56 439.20 785.36 440.40 788.46 441.04
  A 0.70 0.68 -80.4 0 0 789.28 440.44
  L 790.50 431.29
  A 0.71 0.69 -77.6 0 0 790.02 430.51
  C 782.78 428.27 770.32 427.57 764.68 433.75
  C 760.25 438.60 760.74 445.38 760.57 453.56
  A 0.56 0.52 -90.0 0 1 760.06 454.11
  L 752.48 454.22
  A 0.74 0.73 -1.2 0 0 751.75 454.97
  L 751.95 464.31
  A 0.56 0.49 89.9 0 0 752.43 464.86
  L 759.60 464.96
  A 1.17 1.12 0.3 0 1 760.75 466.07
  L 760.93 509.07
  A 0.52 0.52 0.6 0 0 761.44 509.59
  L 774.05 509.70
  A 0.73 0.69 -89.6 0 0 774.75 508.97
  L 774.81 465.57
  A 0.52 0.50 89.4 0 1 775.30 465.05"
/>
<path stroke="#808080" vector-effect="non-scaling-stroke" d="
  M 573.57 446.31
  L 593.57 446.25
  A 0.68 0.66 0.0 0 0 594.25 445.59
  L 594.20 434.06
  A 0.51 0.51 89.4 0 0 593.69 433.56
  L 537.92 433.50
  A 0.68 0.67 90.0 0 0 537.25 434.18
  L 537.25 445.72
  A 0.52 0.52 0.0 0 0 537.77 446.24
  L 557.82 446.07
  A 0.68 0.66 -0.0 0 1 558.50 446.73
  L 558.56 509.19
  A 0.51 0.49 -90.0 0 0 559.05 509.70
  L 572.41 509.74
  A 0.59 0.58 -89.5 0 0 573.00 509.15
  L 573.06 446.81
  A 0.51 0.50 -0.0 0 1 573.57 446.31"
/>
<path stroke="#808080" vector-effect="non-scaling-stroke" d="
  M 597.83 495.93
  Q 595.98 492.76 596.68 487.75
  A 0.57 0.57 3.4 0 1 597.25 487.25
  L 627.18 487.19
  A 0.52 0.51 0.6 0 0 627.70 486.69
  Q 627.79 482.35 627.50 472.25
  C 627.04 456.57 614.99 451.56 601.25 453.26
  Q 583.05 455.52 582.85 474.00
  C 582.66 491.27 579.22 509.04 602.97 510.78
  Q 614.15 511.60 625.74 507.66
  A 1.02 1.00 -14.5 0 0 626.42 506.52
  L 624.84 498.04
  A 1.00 0.96 -11.9 0 0 623.63 497.28
  Q 612.11 500.10 602.87 499.17
  Q 599.52 498.83 597.83 495.93"
/>
<path stroke="#808080" vector-effect="non-scaling-stroke" d="
  M 723.69 464.56
  C 733.13 464.73 732.38 471.35 732.02 478.24
  A 0.57 0.57 -87.4 0 1 731.43 478.78
  Q 723.27 478.57 715.87 479.14
  C 703.30 480.11 700.56 489.54 703.19 500.56
  C 706.51 514.49 722.71 512.29 731.96 506.88
  Q 734.22 505.56 734.25 508.48
  A 1.29 1.29 89.5 0 0 735.54 509.75
  L 745.32 509.75
  A 0.67 0.66 0.0 0 0 745.99 509.09
  Q 746.17 489.98 745.83 471.57
  C 745.63 460.77 741.96 455.40 730.68 453.69
  Q 717.69 451.73 704.92 455.78
  A 0.62 0.57 -13.6 0 0 704.49 456.43
  L 705.96 465.51
  A 0.76 0.73 -10.4 0 0 706.86 466.10
  Q 714.97 464.41 723.69 464.56"
/>
<path stroke="#808080" vector-effect="non-scaling-stroke" d="
  M 840.62 472.93
  A 19.78 19.78 0.0 0 0 820.84 453.15
  L 812.08 453.15
  A 19.78 19.78 0.0 0 0 792.30 472.93
  L 792.30 491.05
  A 19.78 19.78 0.0 0 0 812.08 510.83
  L 820.84 510.83
  A 19.78 19.78 0.0 0 0 840.62 491.05
  L 840.62 472.93"
/>
<path stroke="#808080" vector-effect="non-scaling-stroke" d="
  M 893.96 458.04
  L 892.86 454.53
  A 0.71 0.68 -8.4 0 0 892.19 454.05
  L 882.94 454.05
  A 0.71 0.69 90.0 0 0 882.25 454.76
  L 882.31 509.19
  A 0.52 0.50 90.0 0 0 882.81 509.71
  L 895.57 509.59
  A 0.52 0.49 -90.0 0 0 896.06 509.07
  L 896.00 472.02
  A 1.44 1.43 76.5 0 1 896.78 470.74
  C 900.22 468.98 911.25 464.54 913.98 467.49
  C 916.47 470.19 915.30 502.91 915.24 508.97
  A 0.76 0.75 -90.0 0 0 916.00 509.74
  L 928.69 509.70
  A 0.51 0.51 -0.6 0 0 929.19 509.19
  L 928.99 472.63
  A 2.48 2.46 76.8 0 1 930.35 470.42
  C 933.92 468.63 948.25 462.47 948.25 470.75
  Q 948.25 489.75 948.25 509.23
  A 0.52 0.52 0.0 0 0 948.77 509.75
  L 961.57 509.75
  A 0.67 0.67 90.0 0 0 962.24 509.08
  Q 962.42 487.81 962.03 467.30
  C 961.64 446.06 938.72 453.05 927.77 458.65
  A 0.69 0.69 59.6 0 1 926.89 458.42
  Q 922.72 452.27 915.74 452.85
  Q 904.82 453.75 894.87 458.47
  A 0.69 0.65 68.6 0 1 893.96 458.04"
/>
<path stroke="#808080" vector-effect="non-scaling-stroke" d="
  M 648.97 459.45
  L 648.27 454.68
  A 0.80 0.75 85.6 0 0 647.52 454.00
  L 637.00 454.00
  A 0.50 0.50 0.0 0 0 636.50 454.50
  L 636.44 509.16
  A 0.58 0.58 -89.5 0 0 637.02 509.75
  L 649.94 509.75
  A 0.56 0.56 90.0 0 0 650.50 509.19
  L 650.50 474.40
  A 1.03 0.93 76.7 0 1 650.98 473.53
  L 664.63 465.78
  A 0.79 0.72 -19.3 0 0 665.03 465.04
  L 663.75 453.99
  A 0.85 0.81 73.9 0 0 662.58 453.31
  L 649.50 459.69
  A 0.38 0.34 -17.9 0 1 648.97 459.45"
/>
<path stroke="#808080" vector-effect="non-scaling-stroke" d="
  M 683.01 459.44
  L 682.46 454.74
  A 0.85 0.84 -3.4 0 0 681.62 454.00
  L 671.35 454.00
  A 0.85 0.85 0.0 0 0 670.50 454.85
  L 670.56 509.19
  A 0.52 0.49 89.5 0 0 671.06 509.71
  L 684.01 509.53
  A 0.54 0.50 -90.0 0 0 684.51 508.99
  L 684.81 474.31
  A 0.97 0.93 74.3 0 1 685.22 473.54
  Q 691.21 469.51 698.34 466.13
  A 1.58 1.55 74.0 0 0 699.21 464.53
  L 697.98 453.83
  A 0.72 0.70 74.6 0 0 696.98 453.24
  L 683.51 459.70
  A 0.35 0.34 -16.7 0 1 683.01 459.44"
/>
<path stroke="#808080" vector-effect="non-scaling-stroke" d="
  M 860.80 459.53
  L 859.97 454.98
  A 1.19 1.00 83.9 0 0 858.95 454.00
  L 848.66 454.00
  A 0.66 0.66 -90.0 0 0 848.00 454.66
  L 848.00 509.21
  A 0.56 0.55 0.5 0 0 848.55 509.76
  L 861.44 509.83
  A 0.56 0.55 -0.0 0 0 862.00 509.28
  L 862.00 474.52
  A 1.09 0.96 76.9 0 1 862.49 473.61
  L 875.95 466.00
  A 1.12 0.95 -19.6 0 0 876.52 465.02
  L 875.35 453.96
  A 0.73 0.71 -12.6 0 0 874.39 453.37
  Q 867.62 455.77 861.42 459.73
  A 0.42 0.37 -23.0 0 1 860.80 459.53"
/>
<path stroke="#8a8a8f" vector-effect="non-scaling-stroke" d="
  M 422.67 163.69
  L 422.52 188.04
  A 1.39 1.36 12.4 0 0 423.35 189.31
  C 428.56 191.58 438.37 193.70 440.18 185.93
  Q 442.34 176.66 440.26 167.35
  C 438.32 158.65 429.00 159.17 423.11 162.91
  A 0.94 0.94 74.6 0 0 422.67 163.69"
/>
<path stroke="#8b756a" vector-effect="non-scaling-stroke" d="
  M 220.29 336.25
  C 215.84 362.16 230.72 380.15 255.75 385.00
  C 270.68 387.89 285.73 388.27 301.50 388.11
  C 326.08 387.87 358.75 387.02 365.02 356.50
  C 366.72 348.19 367.09 339.29 363.89 331.82"
/>
<path stroke="#705e55" vector-effect="non-scaling-stroke" d="
  M 363.89 331.82
  C 353.33 305.05 329.61 309.48 305.75 311.00
  Q 293.10 311.81 277.00 310.82
  C 260.32 309.80 240.87 306.32 228.44 320.69
  C 225.03 324.63 220.38 330.84 220.29 336.25"
/>
<path stroke="#d9b49f" vector-effect="non-scaling-stroke" d="
  M 363.89 331.82
  Q 359.58 324.80 353.33 319.78
  C 343.02 311.51 331.25 312.10 317.81 313.39
  C 299.51 315.13 281.91 315.16 263.62 313.19
  C 242.76 310.95 228.62 316.54 220.29 336.25"
/>
<path stroke="#fae5d9" vector-effect="non-scaling-stroke" d="
  M 331.59 323.25
  Q 324.98 327.68 322.50 333.46
  Q 322.33 333.87 322.02 334.10
  A 1.52 0.54 -28.1 0 0 321.40 334.78
  C 317.89 345.39 319.62 362.78 332.48 366.49
  C 352.84 372.37 359.02 323.66 333.62 322.67
  A 3.42 3.41 29.0 0 0 331.59 323.25"
/>
<path stroke="#f9e3d5" vector-effect="non-scaling-stroke" d="
  M 253.1561 367.0095
  A 22.04 15.41 90.4 0 0 268.7196 345.0776
  A 22.04 15.41 90.4 0 0 253.4639 322.9305
  A 22.04 15.41 90.4 0 0 237.9004 344.8624
  A 22.04 15.41 90.4 0 0 253.1561 367.0095"
/>
<path stroke="#cf9583" vector-effect="non-scaling-stroke" d="
  M 296.83 364.54
  A 3.72 3.72 0.0 0 0 293.11 360.82
  A 3.72 3.72 0.0 0 0 289.39 364.54
  A 3.72 3.72 0.0 0 0 293.11 368.26
  A 3.72 3.72 0.0 0 0 296.83 364.54"
/>
<path stroke="#cf9583" vector-effect="non-scaling-stroke" d="
  M 284.37 374.23
  C 286.63 382.69 297.39 381.79 301.36 375.41
  C 303.05 372.70 300.90 371.48 299.14 374.28
  Q 295.55 379.97 289.98 377.15
  Q 288.50 376.41 287.60 375.02
  Q 285.51 371.83 284.49 373.32
  A 1.16 0.90 59.8 0 0 284.37 374.23"
/>
<path stroke="#d4afa9" vector-effect="non-scaling-stroke" d="
  M 333.6855 359.8100
  A 14.63 10.13 89.9 0 0 343.7900 345.1623
  A 14.63 10.13 89.9 0 0 333.6345 330.5500
  A 14.63 10.13 89.9 0 0 323.5300 345.1977
  A 14.63 10.13 89.9 0 0 333.6855 359.8100"
/>
<path stroke="#d3aca5" vector-effect="non-scaling-stroke" d="
  M 254.5087 359.8399
  A 14.69 10.14 90.2 0 0 264.6999 345.1854
  A 14.69 10.14 90.2 0 0 254.6113 330.4601
  A 14.69 10.14 90.2 0 0 244.4201 345.1146
  A 14.69 10.14 90.2 0 0 254.5087 359.8399"
/>
<path stroke="#d3aca5" vector-effect="non-scaling-stroke" d="
  M 253.08 338.59
  A 2.83 2.83 0.0 0 0 250.25 335.76
  A 2.83 2.83 0.0 0 0 247.42 338.59
  A 2.83 2.83 0.0 0 0 250.25 341.42
  A 2.83 2.83 0.0 0 0 253.08 338.59"
/>
<path stroke="#d3aca5" vector-effect="non-scaling-stroke" d="
  M 333.11 338.51
  A 2.59 2.59 0.0 0 0 330.52 335.92
  A 2.59 2.59 0.0 0 0 327.93 338.51
  A 2.59 2.59 0.0 0 0 330.52 341.10
  A 2.59 2.59 0.0 0 0 333.11 338.51"
/>
<path stroke="#848889" vector-effect="non-scaling-stroke" d="
  M 201.5324 394.2787
  A 1.48 1.15 32.2 0 0 200.8928 392.5169
  A 1.48 1.15 32.2 0 0 199.0276 392.7013
  A 1.48 1.15 32.2 0 0 199.6672 394.4631
  A 1.48 1.15 32.2 0 0 201.5324 394.2787"
/>
<path stroke="#908f90" vector-effect="non-scaling-stroke" d="
  M 207.2548 398.6600
  A 1.85 1.16 36.1 0 0 206.4435 396.6327
  A 1.85 1.16 36.1 0 0 204.2652 396.4800
  A 1.85 1.16 36.1 0 0 205.0765 398.5073
  A 1.85 1.16 36.1 0 0 207.2548 398.6600"
/>
<path stroke="#908f90" vector-effect="non-scaling-stroke" d="
  M 212.3956 405.9362
  A 2.30 1.36 57.8 0 0 212.3208 403.2653
  A 2.30 1.36 57.8 0 0 209.9444 402.0438
  A 2.30 1.36 57.8 0 0 210.0192 404.7147
  A 2.30 1.36 57.8 0 0 212.3956 405.9362"
/>
<path stroke="#848889" vector-effect="non-scaling-stroke" d="
  M 218.7556 413.4199
  A 2.54 1.45 50.5 0 0 218.2589 410.5377
  A 2.54 1.45 50.5 0 0 215.5244 409.5001
  A 2.54 1.45 50.5 0 0 216.0211 412.3823
  A 2.54 1.45 50.5 0 0 218.7556 413.4199"
/>
<path stroke="#848889" vector-effect="non-scaling-stroke" d="
  M 226.4582 419.1000
  A 2.41 1.56 31.8 0 0 225.2321 416.5042
  A 2.41 1.56 31.8 0 0 222.3618 416.5600
  A 2.41 1.56 31.8 0 0 223.5879 419.1558
  A 2.41 1.56 31.8 0 0 226.4582 419.1000"
/>
<path stroke="#848889" vector-effect="non-scaling-stroke" d="
  M 251.15 419.63
  C 254.33 421.67 254.41 414.75 251.01 417.71
  A 1.20 1.20 40.9 0 0 251.15 419.63"
/>
<path stroke="#908f90" vector-effect="non-scaling-stroke" d="
  M 235.8690 420.9961
  A 2.39 1.54 7.6 0 0 233.7037 419.1535
  A 2.39 1.54 7.6 0 0 231.1310 420.3639
  A 2.39 1.54 7.6 0 0 233.2963 422.2065
  A 2.39 1.54 7.6 0 0 235.8690 420.9961"
/>
<path stroke="#848889" vector-effect="non-scaling-stroke" d="
  M 246.0383 420.5909
  A 2.45 1.64 -5.6 0 0 243.4400 419.1978
  A 2.45 1.64 -5.6 0 0 241.1617 421.0691
  A 2.45 1.64 -5.6 0 0 243.7600 422.4622
  A 2.45 1.64 -5.6 0 0 246.0383 420.5909"
/>
<path stroke="#808080" vector-effect="non-scaling-stroke" d="
  M 561.2865 414.2597
  A 2.09 1.38 -3.3 0 0 559.1206 413.0023
  A 2.09 1.38 -3.3 0 0 557.1135 414.5003
  A 2.09 1.38 -3.3 0 0 559.2794 415.7577
  A 2.09 1.38 -3.3 0 0 561.2865 414.2597"
/>
<path stroke="#808080" vector-effect="non-scaling-stroke" d="
  M 623.2034 409.6774
  A 2.19 2.19 0.0 0 0 620.9944 407.5066
  L 620.1744 407.5137
  A 2.19 2.19 0.0 0 0 618.0036 409.7228
  L 618.0366 413.5026
  A 2.19 2.19 0.0 0 0 620.2456 415.6734
  L 621.0656 415.6663
  A 2.19 2.19 0.0 0 0 623.2364 413.4572
  L 623.2034 409.6774"
/>
<path stroke="#808080" vector-effect="non-scaling-stroke" d="
  M 647.22 409.06
  A 1.63 1.63 0.0 0 0 645.59 407.43
  L 643.97 407.43
  A 1.63 1.63 0.0 0 0 642.34 409.06
  L 642.34 413.66
  A 1.63 1.63 0.0 0 0 643.97 415.29
  L 645.59 415.29
  A 1.63 1.63 0.0 0 0 647.22 413.66
  L 647.22 409.06"
/>
<path stroke="#808080" vector-effect="non-scaling-stroke" d="
  M 596.83 475.51
  A 0.58 0.57 -4.0 0 0 597.40 476.00
  L 613.50 476.00
  A 0.67 0.67 -87.7 0 0 614.17 475.38
  Q 614.98 466.22 608.65 464.71
  C 601.08 462.92 595.54 467.08 596.83 475.51"
/>
<path stroke="#808080" vector-effect="non-scaling-stroke" d="
  M 718.43 499.18
  Q 725.37 500.78 731.52 497.19
  A 0.95 0.86 77.6 0 0 731.95 496.43
  L 732.16 489.32
  A 0.50 0.48 -88.3 0 0 731.69 488.80
  L 719.99 488.75
  Q 717.38 488.74 716.43 491.21
  Q 714.75 495.58 717.59 498.70
  A 1.73 1.53 -11.7 0 0 718.43 499.18"
/>
<path stroke="#808080" vector-effect="non-scaling-stroke" d="
  M 826.70 473.07
  A 8.23 8.23 0.0 0 0 818.47 464.84
  L 814.49 464.84
  A 8.23 8.23 0.0 0 0 806.26 473.07
  L 806.26 490.73
  A 8.23 8.23 0.0 0 0 814.49 498.96
  L 818.47 498.96
  A 8.23 8.23 0.0 0 0 826.70 490.73
  L 826.70 473.07"
/>
</g>
<path fill="#ffffff" d="
  M 0.00 0.00
  L 1024.00 0.00
  L 1024.00 600.00
  L 0.00 600.00
  L 0.00 0.00
  Z
  M 625.27 110.69
  Q 624.63 145.57 625.30 180.44
  A 0.89 0.88 -75.6 0 0 625.74 181.19
  L 701.51 224.97
  Q 702.50 225.54 702.50 224.40
  L 702.50 137.23
  A 1.85 1.84 -75.2 0 0 701.58 135.63
  L 626.11 92.06
  Q 624.91 91.37 624.98 92.76
  Q 625.43 101.96 625.27 110.69
  Z
  M 176.45 188.73
  C 165.77 189.72 155.31 189.35 151.50 178.25
  Q 146.46 163.56 150.96 148.00
  C 155.77 131.33 174.78 132.96 187.55 136.84
  A 0.87 0.86 15.1 0 0 188.65 136.22
  L 191.88 122.70
  A 1.26 1.24 18.5 0 0 191.15 121.27
  C 181.80 117.18 169.13 116.33 159.27 117.93
  C 141.17 120.86 133.79 133.60 131.21 150.79
  Q 128.97 165.75 132.25 180.00
  C 137.26 201.76 155.88 207.73 176.00 205.97
  Q 185.59 205.13 194.47 200.24
  A 1.51 1.51 -14.4 0 0 195.25 198.92
  L 195.19 156.06
  A 0.52 0.52 1.1 0 0 194.69 155.54
  Q 180.13 154.88 165.56 155.54
  A 0.54 0.53 89.4 0 0 165.05 156.07
  L 165.00 170.73
  A 0.71 0.70 -89.6 0 0 165.69 171.44
  L 176.37 171.49
  A 0.89 0.86 1.0 0 1 177.25 172.37
  L 176.96 188.18
  A 0.56 0.55 88.3 0 1 176.45 188.73
  Z
  M 317.45 169.06
  L 317.46 203.33
  A 1.37 1.33 -89.8 0 0 318.78 204.70
  L 334.76 204.75
  A 0.99 0.99 0.0 0 0 335.75 203.76
  L 335.75 121.19
  A 0.69 0.69 0.0 0 0 335.06 120.50
  L 318.31 120.50
  A 0.56 0.56 -89.5 0 0 317.75 121.05
  L 317.56 151.06
  A 0.52 0.52 -0.6 0 1 317.05 151.58
  L 293.93 151.81
  A 0.50 0.49 89.4 0 1 293.43 151.31
  L 293.26 121.40
  A 0.87 0.83 89.7 0 0 292.42 120.53
  L 275.68 120.67
  A 0.52 0.50 -89.4 0 0 275.18 121.18
  Q 274.74 161.05 274.99 200.92
  C 275.01 202.72 274.34 205.00 277.09 204.83
  C 282.19 204.52 287.41 204.76 292.45 204.69
  A 0.81 0.81 -0.4 0 0 293.25 203.88
  L 293.25 169.16
  A 0.66 0.66 -0.2 0 1 293.91 168.50
  L 316.94 168.56
  A 0.51 0.50 0.0 0 1 317.45 169.06
  Z
  M 422.81 148.68
  L 422.75 121.48
  A 0.98 0.97 90.0 0 0 421.78 120.50
  L 405.37 120.50
  A 0.81 0.81 0.0 0 0 404.56 121.31
  L 404.50 203.86
  A 0.87 0.84 89.7 0 0 405.35 204.73
  L 417.15 204.51
  A 1.29 1.22 87.5 0 0 418.33 203.15
  Q 418.12 199.98 419.24 200.88
  C 428.65 208.41 449.33 209.32 455.44 196.44
  C 460.77 185.19 461.92 160.80 452.54 150.97
  C 445.33 143.43 431.85 144.57 423.26 148.96
  A 0.31 0.31 76.6 0 1 422.81 148.68
  Z
  M 222.85 132.43
  A 10.10 10.10 0.0 0 0 212.75 122.33
  A 10.10 10.10 0.0 0 0 202.65 132.43
  A 10.10 10.10 0.0 0 0 212.75 142.53
  A 10.10 10.10 0.0 0 0 222.85 132.43
  Z
  M 254.83 146.68
  L 255.00 131.50
  A 0.55 0.54 1.7 0 0 254.48 130.96
  Q 245.88 130.40 237.56 131.02
  A 0.55 0.54 87.8 0 0 237.06 131.57
  L 236.94 147.18
  A 0.64 0.62 -7.1 0 1 236.45 147.79
  L 228.07 149.94
  A 0.79 0.76 82.9 0 0 227.50 150.70
  L 227.50 161.49
  A 0.88 0.82 0.7 0 0 228.36 162.31
  L 236.44 162.50
  A 0.55 0.50 -88.9 0 1 236.93 163.06
  Q 236.89 174.10 237.12 185.14
  Q 237.28 193.00 238.59 196.19
  C 242.49 205.73 254.86 207.46 264.02 205.48
  C 266.19 205.01 268.64 205.40 268.38 202.14
  C 268.13 198.95 268.25 195.69 268.25 192.37
  A 0.92 0.92 -1.8 0 0 267.27 191.45
  C 261.27 191.84 255.21 191.96 254.90 184.33
  Q 254.48 173.66 254.98 162.99
  A 0.54 0.53 -89.4 0 1 255.50 162.47
  L 267.07 162.26
  A 0.94 0.87 -1.0 0 0 267.99 161.38
  L 267.84 147.93
  A 0.54 0.52 0.0 0 0 267.31 147.42
  L 255.32 147.19
  A 0.50 0.50 -83.7 0 1 254.83 146.68
  Z
  M 874.31 230.57
  C 874.88 201.11 874.39 171.56 874.50 142.08
  Q 874.51 141.31 873.84 141.69
  L 797.45 185.72
  A 0.90 0.88 -15.3 0 0 797.00 186.49
  L 797.00 274.55
  A 0.51 0.51 75.0 0 0 797.76 274.99
  L 874.05 231.02
  A 0.52 0.52 -15.0 0 0 874.31 230.57
  Z
  M 711.49 230.94
  C 736.79 245.88 762.27 260.61 787.87 275.07
  A 0.38 0.38 14.7 0 0 788.44 274.74
  L 788.50 187.49
  A 2.26 2.25 -75.0 0 0 787.38 185.54
  Q 750.14 163.75 711.98 141.98
  C 710.14 140.93 711.00 143.77 711.00 144.50
  Q 710.90 166.79 711.06 230.19
  A 0.87 0.86 -75.0 0 0 711.49 230.94
  Z
  M 221.74 148.22
  A 0.96 0.96 0.0 0 0 220.78 147.26
  L 204.46 147.26
  A 0.96 0.96 0.0 0 0 203.50 148.22
  L 203.50 203.70
  A 0.96 0.96 0.0 0 0 204.46 204.66
  L 220.78 204.66
  A 0.96 0.96 0.0 0 0 221.74 203.70
  L 221.74 148.22
  Z
  M 382.46 201.32
  Q 383.95 200.44 383.76 202.16
  Q 383.48 204.67 385.25 204.69
  Q 390.25 204.75 395.57 204.75
  A 0.68 0.67 0.0 0 0 396.25 204.08
  L 396.19 148.06
  A 0.55 0.54 2.3 0 0 395.68 147.52
  Q 387.30 146.77 378.94 147.63
  A 0.58 0.56 -3.4 0 0 378.43 148.19
  L 378.26 187.36
  A 2.31 2.26 78.2 0 1 376.94 189.43
  C 370.17 192.54 361.88 193.76 361.70 183.53
  Q 361.38 165.79 361.43 148.05
  A 0.53 0.52 2.9 0 0 360.94 147.52
  Q 352.35 146.88 344.00 147.48
  A 0.81 0.81 -2.3 0 0 343.25 148.29
  Q 343.25 166.75 343.17 184.25
  C 343.09 199.16 348.81 206.11 364.07 206.27
  Q 373.99 206.37 382.46 201.32
  Z
  M 199.00 351.90
  Q 164.52 350.46 130.56 356.54
  Q 129.38 356.75 129.46 357.71
  A 0.51 0.45 -7.3 0 0 130.05 358.11
  Q 164.29 352.52 199.00 353.21
  Q 200.76 355.18 201.80 358.78
  A 0.41 0.40 -8.9 0 1 201.42 359.29
  Q 166.47 360.34 131.66 368.89
  A 3.18 3.15 10.7 0 0 129.84 370.12
  C 129.23 370.98 130.58 371.04 131.16 370.89
  Q 166.14 361.93 202.43 360.74
  A 0.88 0.85 -14.9 0 1 203.20 361.17
  C 217.31 385.49 241.13 391.01 266.79 395.00
  L 264.50 397.21
  Q 258.44 402.62 255.96 411.52
  Q 255.47 413.30 253.83 414.12
  Q 247.55 417.25 240.25 417.49
  C 225.86 417.97 219.72 410.32 212.44 399.56
  C 207.62 392.44 196.43 385.94 187.65 389.33
  Q 185.27 390.26 186.75 392.35
  Q 188.41 394.69 190.88 395.92
  Q 201.63 401.26 206.83 412.11
  C 216.05 431.32 234.16 436.10 253.90 431.77
  A 0.49 0.49 -6.7 0 1 254.50 432.24
  Q 254.77 444.15 253.97 455.14
  Q 237.97 456.92 222.78 463.49
  C 214.60 467.04 200.89 475.08 202.94 485.97
  C 205.97 502.12 241.20 510.64 253.71 512.50
  Q 261.65 514.19 269.75 514.79
  L 275.03 515.22
  L 291.50 515.96
  L 296.00 515.96
  Q 304.79 516.30 313.50 515.21
  L 317.00 514.96
  L 333.50 512.96
  Q 353.49 510.30 371.63 501.56
  C 392.67 491.43 391.67 475.16 371.19 465.31
  Q 353.42 456.77 333.26 454.40
  Q 333.36 442.60 333.00 420.25
  Q 332.89 413.54 330.54 408.00
  Q 327.49 400.28 320.67 395.17
  C 344.95 392.18 371.83 385.95 383.20 361.30
  A 1.01 0.99 -76.4 0 1 384.13 360.72
  Q 421.19 361.83 456.22 370.94
  C 458.12 371.43 457.80 369.54 456.37 369.16
  Q 421.22 359.84 384.95 359.32
  A 0.42 0.38 9.0 0 1 384.54 358.82
  L 386.22 353.92
  A 0.90 0.63 5.3 0 1 386.99 353.48
  Q 421.25 352.13 455.03 357.88
  C 455.81 358.01 458.22 359.08 457.83 357.29
  A 0.89 0.80 2.5 0 0 457.21 356.68
  Q 454.16 355.87 452.19 355.56
  Q 419.91 350.51 387.35 352.00
  A 0.50 0.50 5.0 0 1 386.84 351.40
  Q 389.29 339.67 389.86 327.99
  C 390.89 306.83 387.67 290.42 372.64 274.48
  A 1.42 1.41 -60.3 0 1 372.29 273.19
  Q 376.55 254.34 369.59 236.18
  A 0.97 0.95 -8.5 0 0 368.75 235.57
  C 354.76 234.64 340.35 242.32 329.14 250.14
  A 2.01 2.00 33.9 0 1 327.54 250.45
  Q 292.05 242.21 255.82 251.17
  A 3.23 3.22 55.5 0 1 253.20 250.68
  C 241.86 242.78 227.08 234.68 212.68 235.57
  A 1.13 1.12 8.8 0 0 211.69 236.29
  Q 204.20 255.69 210.02 275.94
  A 1.12 1.10 -32.8 0 1 209.79 276.98
  C 191.08 298.80 191.32 326.11 199.00 351.90
  Z
  M 711.75 330.45
  L 787.85 374.42
  Q 788.50 374.79 788.50 374.04
  L 788.50 285.85
  A 0.90 0.87 -75.6 0 0 788.06 285.08
  L 711.87 241.31
  A 0.58 0.58 15.0 0 0 711.00 241.81
  L 711.00 329.16
  A 1.49 1.48 15.0 0 0 711.75 330.45
  Z
  M 189.30 409.18
  C 195.33 410.35 190.74 397.97 189.42 398.06
  A 0.78 0.71 -84.8 0 0 188.77 398.66
  L 187.13 406.19
  Q 186.60 408.66 189.30 409.18
  Z
  M 541.31 410.50
  L 547.49 410.32
  A 0.54 0.50 89.5 0 1 548.00 410.86
  L 548.00 417.30
  A 0.78 0.77 6.6 0 0 548.60 418.05
  C 551.78 418.76 551.50 418.13 551.50 415.40
  Q 551.50 409.03 551.50 402.67
  C 551.50 399.79 551.98 398.96 548.50 399.72
  A 0.64 0.63 -6.2 0 0 548.00 400.34
  L 548.00 406.75
  A 0.51 0.50 -0.6 0 1 547.50 407.25
  L 541.21 407.33
  A 0.47 0.46 5.0 0 1 540.74 406.79
  Q 541.29 403.88 540.75 401.00
  A 1.93 1.87 0.9 0 0 539.25 399.50
  Q 538.44 399.33 537.75 399.59
  A 0.78 0.71 79.7 0 0 537.30 400.31
  L 537.42 417.56
  A 0.51 0.49 88.9 0 0 537.93 418.07
  L 540.45 417.98
  A 0.52 0.49 88.3 0 0 540.92 417.45
  L 540.81 411.06
  A 0.55 0.52 88.4 0 1 541.31 410.50
  Z
  M 584.62 404.94
  Q 582.75 405.65 583.09 403.68
  Q 583.97 398.61 580.23 399.60
  A 0.67 0.65 82.6 0 0 579.75 400.24
  L 579.75 417.25
  A 0.79 0.74 -79.5 0 0 580.21 417.97
  Q 581.45 418.47 582.71 418.10
  A 0.72 0.66 83.6 0 0 583.20 417.43
  L 583.30 409.82
  A 1.25 1.07 72.7 0 1 583.67 408.96
  Q 585.23 407.56 587.32 407.85
  A 0.70 0.68 88.7 0 1 587.90 408.42
  Q 588.68 412.89 588.25 415.25
  Q 587.52 419.21 591.03 418.16
  A 0.71 0.67 -9.8 0 0 591.53 417.50
  L 591.27 406.30
  A 1.61 1.44 7.3 0 0 590.05 404.89
  Q 586.86 404.08 584.62 404.94
  Z
  M 598.2268 400.1360
  A 0.71 0.71 0.0 0 0 597.4924 399.4512
  L 595.2138 399.5308
  A 0.71 0.71 0.0 0 0 594.5290 400.2651
  L 594.5932 402.1040
  A 0.71 0.71 0.0 0 0 595.3276 402.7888
  L 597.6062 402.7092
  A 0.71 0.71 0.0 0 0 598.2910 401.9749
  L 598.2268 400.1360
  Z
  M 603.41 417.40
  Q 607.49 419.03 611.85 417.79
  A 1.33 1.33 -12.2 0 0 612.80 416.32
  C 612.39 413.63 608.12 415.37 606.12 414.88
  A 1.98 1.79 7.9 0 1 604.60 413.06
  L 604.75 404.06
  A 0.97 0.83 -16.4 0 1 605.24 403.31
  C 607.89 401.83 613.36 404.40 612.72 400.83
  A 0.96 0.94 1.0 0 0 611.97 400.07
  C 608.54 399.38 602.50 398.85 601.26 402.84
  C 600.37 405.68 600.75 411.29 601.29 414.74
  Q 601.59 416.67 603.41 417.40
  Z
  M 561.12 408.27
  C 563.18 413.80 552.70 407.06 554.00 415.77
  Q 554.47 418.88 557.53 418.19
  Q 560.48 417.52 564.11 418.05
  A 0.56 0.55 -85.6 0 0 564.75 417.50
  C 564.75 409.83 567.21 402.95 555.75 404.75
  Q 553.70 405.07 554.54 407.05
  A 0.66 0.61 -14.7 0 0 555.24 407.42
  Q 557.90 407.03 560.46 407.68
  A 0.98 0.94 -2.0 0 1 561.12 408.27
  Z
  M 571.13 407.93
  Q 572.33 407.19 575.64 407.40
  A 1.40 1.39 18.4 0 0 576.87 406.79
  C 578.60 404.21 567.15 402.47 567.55 408.60
  C 567.70 410.77 567.92 411.87 570.34 412.10
  Q 572.07 412.26 573.43 413.34
  Q 574.61 414.29 573.11 415.42
  A 3.03 3.02 -54.1 0 1 570.34 415.87
  Q 567.27 414.84 567.50 417.03
  A 1.08 1.08 -88.6 0 0 568.40 417.98
  Q 570.86 418.40 573.25 418.39
  C 578.59 418.38 579.10 410.47 573.06 410.19
  Q 571.57 410.12 570.93 408.71
  A 0.63 0.58 61.9 0 1 571.13 407.93
  Z
  M 626.6665 409.4294
  A 4.81 4.81 0.0 0 0 621.8481 404.6278
  L 619.3281 404.6322
  A 4.81 4.81 0.0 0 0 614.5265 409.4506
  L 614.5335 413.4706
  A 4.81 4.81 0.0 0 0 619.3519 418.2722
  L 621.8719 418.2678
  A 4.81 4.81 0.0 0 0 626.6735 413.4494
  L 626.6665 409.4294
  Z
  M 643.43 417.92
  Q 650.35 419.39 650.76 413.84
  C 651.13 408.69 650.49 402.11 642.71 405.30
  A 1.04 1.01 47.3 0 1 641.82 405.25
  C 637.91 403.14 638.75 406.91 638.75 409.00
  C 638.75 413.26 639.03 417.82 638.66 422.04
  Q 638.47 424.24 641.71 423.06
  A 0.89 0.75 85.9 0 0 642.21 422.37
  L 642.79 418.29
  A 0.55 0.46 10.3 0 1 643.43 417.92
  Z
  M 598.26 405.26
  A 0.52 0.52 0.0 0 0 597.74 404.74
  L 595.02 404.74
  A 0.52 0.52 0.0 0 0 594.50 405.26
  L 594.50 417.72
  A 0.52 0.52 0.0 0 0 595.02 418.24
  L 597.74 418.24
  A 0.52 0.52 0.0 0 0 598.26 417.72
  L 598.26 405.26
  Z
  M 633.80 409.01
  C 636.95 408.56 637.71 403.10 633.85 405.39
  A 1.12 1.10 42.3 0 1 632.82 405.43
  Q 628.93 403.56 629.14 406.71
  C 629.38 410.11 629.25 413.67 629.25 417.38
  A 0.80 0.80 -83.7 0 0 629.87 418.16
  Q 633.51 419.01 632.75 415.75
  Q 632.17 413.25 633.18 409.55
  A 0.78 0.73 2.0 0 1 633.80 409.01
  Z
  M 775.30 465.05
  L 787.37 465.00
  A 0.91 0.89 -87.9 0 0 788.26 464.15
  L 788.99 454.81
  A 0.75 0.73 -87.5 0 0 788.26 454.00
  L 775.27 454.00
  A 0.51 0.51 89.4 0 1 774.76 453.50
  C 774.67 450.73 774.25 444.74 775.63 442.42
  C 777.56 439.20 785.36 440.40 788.46 441.04
  A 0.70 0.68 -80.4 0 0 789.28 440.44
  L 790.50 431.29
  A 0.71 0.69 -77.6 0 0 790.02 430.51
  C 782.78 428.27 770.32 427.57 764.68 433.75
  C 760.25 438.60 760.74 445.38 760.57 453.56
  A 0.56 0.52 -90.0 0 1 760.06 454.11
  L 752.48 454.22
  A 0.74 0.73 -1.2 0 0 751.75 454.97
  L 751.95 464.31
  A 0.56 0.49 89.9 0 0 752.43 464.86
  L 759.60 464.96
  A 1.17 1.12 0.3 0 1 760.75 466.07
  L 760.93 509.07
  A 0.52 0.52 0.6 0 0 761.44 509.59
  L 774.05 509.70
  A 0.73 0.69 -89.6 0 0 774.75 508.97
  L 774.81 465.57
  A 0.52 0.50 89.4 0 1 775.30 465.05
  Z
  M 573.57 446.31
  L 593.57 446.25
  A 0.68 0.66 0.0 0 0 594.25 445.59
  L 594.20 434.06
  A 0.51 0.51 89.4 0 0 593.69 433.56
  L 537.92 433.50
  A 0.68 0.67 90.0 0 0 537.25 434.18
  L 537.25 445.72
  A 0.52 0.52 0.0 0 0 537.77 446.24
  L 557.82 446.07
  A 0.68 0.66 -0.0 0 1 558.50 446.73
  L 558.56 509.19
  A 0.51 0.49 -90.0 0 0 559.05 509.70
  L 572.41 509.74
  A 0.59 0.58 -89.5 0 0 573.00 509.15
  L 573.06 446.81
  A 0.51 0.50 -0.0 0 1 573.57 446.31
  Z
  M 597.83 495.93
  Q 595.98 492.76 596.68 487.75
  A 0.57 0.57 3.4 0 1 597.25 487.25
  L 627.18 487.19
  A 0.52 0.51 0.6 0 0 627.70 486.69
  Q 627.79 482.35 627.50 472.25
  C 627.04 456.57 614.99 451.56 601.25 453.26
  Q 583.05 455.52 582.85 474.00
  C 582.66 491.27 579.22 509.04 602.97 510.78
  Q 614.15 511.60 625.74 507.66
  A 1.02 1.00 -14.5 0 0 626.42 506.52
  L 624.84 498.04
  A 1.00 0.96 -11.9 0 0 623.63 497.28
  Q 612.11 500.10 602.87 499.17
  Q 599.52 498.83 597.83 495.93
  Z
  M 723.69 464.56
  C 733.13 464.73 732.38 471.35 732.02 478.24
  A 0.57 0.57 -87.4 0 1 731.43 478.78
  Q 723.27 478.57 715.87 479.14
  C 703.30 480.11 700.56 489.54 703.19 500.56
  C 706.51 514.49 722.71 512.29 731.96 506.88
  Q 734.22 505.56 734.25 508.48
  A 1.29 1.29 89.5 0 0 735.54 509.75
  L 745.32 509.75
  A 0.67 0.66 0.0 0 0 745.99 509.09
  Q 746.17 489.98 745.83 471.57
  C 745.63 460.77 741.96 455.40 730.68 453.69
  Q 717.69 451.73 704.92 455.78
  A 0.62 0.57 -13.6 0 0 704.49 456.43
  L 705.96 465.51
  A 0.76 0.73 -10.4 0 0 706.86 466.10
  Q 714.97 464.41 723.69 464.56
  Z
  M 840.62 472.93
  A 19.78 19.78 0.0 0 0 820.84 453.15
  L 812.08 453.15
  A 19.78 19.78 0.0 0 0 792.30 472.93
  L 792.30 491.05
  A 19.78 19.78 0.0 0 0 812.08 510.83
  L 820.84 510.83
  A 19.78 19.78 0.0 0 0 840.62 491.05
  L 840.62 472.93
  Z
  M 893.96 458.04
  L 892.86 454.53
  A 0.71 0.68 -8.4 0 0 892.19 454.05
  L 882.94 454.05
  A 0.71 0.69 90.0 0 0 882.25 454.76
  L 882.31 509.19
  A 0.52 0.50 90.0 0 0 882.81 509.71
  L 895.57 509.59
  A 0.52 0.49 -90.0 0 0 896.06 509.07
  L 896.00 472.02
  A 1.44 1.43 76.5 0 1 896.78 470.74
  C 900.22 468.98 911.25 464.54 913.98 467.49
  C 916.47 470.19 915.30 502.91 915.24 508.97
  A 0.76 0.75 -90.0 0 0 916.00 509.74
  L 928.69 509.70
  A 0.51 0.51 -0.6 0 0 929.19 509.19
  L 928.99 472.63
  A 2.48 2.46 76.8 0 1 930.35 470.42
  C 933.92 468.63 948.25 462.47 948.25 470.75
  Q 948.25 489.75 948.25 509.23
  A 0.52 0.52 0.0 0 0 948.77 509.75
  L 961.57 509.75
  A 0.67 0.67 90.0 0 0 962.24 509.08
  Q 962.42 487.81 962.03 467.30
  C 961.64 446.06 938.72 453.05 927.77 458.65
  A 0.69 0.69 59.6 0 1 926.89 458.42
  Q 922.72 452.27 915.74 452.85
  Q 904.82 453.75 894.87 458.47
  A 0.69 0.65 68.6 0 1 893.96 458.04
  Z
  M 648.97 459.45
  L 648.27 454.68
  A 0.80 0.75 85.6 0 0 647.52 454.00
  L 637.00 454.00
  A 0.50 0.50 0.0 0 0 636.50 454.50
  L 636.44 509.16
  A 0.58 0.58 -89.5 0 0 637.02 509.75
  L 649.94 509.75
  A 0.56 0.56 90.0 0 0 650.50 509.19
  L 650.50 474.40
  A 1.03 0.93 76.7 0 1 650.98 473.53
  L 664.63 465.78
  A 0.79 0.72 -19.3 0 0 665.03 465.04
  L 663.75 453.99
  A 0.85 0.81 73.9 0 0 662.58 453.31
  L 649.50 459.69
  A 0.38 0.34 -17.9 0 1 648.97 459.45
  Z
  M 683.01 459.44
  L 682.46 454.74
  A 0.85 0.84 -3.4 0 0 681.62 454.00
  L 671.35 454.00
  A 0.85 0.85 0.0 0 0 670.50 454.85
  L 670.56 509.19
  A 0.52 0.49 89.5 0 0 671.06 509.71
  L 684.01 509.53
  A 0.54 0.50 -90.0 0 0 684.51 508.99
  L 684.81 474.31
  A 0.97 0.93 74.3 0 1 685.22 473.54
  Q 691.21 469.51 698.34 466.13
  A 1.58 1.55 74.0 0 0 699.21 464.53
  L 697.98 453.83
  A 0.72 0.70 74.6 0 0 696.98 453.24
  L 683.51 459.70
  A 0.35 0.34 -16.7 0 1 683.01 459.44
  Z
  M 860.80 459.53
  L 859.97 454.98
  A 1.19 1.00 83.9 0 0 858.95 454.00
  L 848.66 454.00
  A 0.66 0.66 -90.0 0 0 848.00 454.66
  L 848.00 509.21
  A 0.56 0.55 0.5 0 0 848.55 509.76
  L 861.44 509.83
  A 0.56 0.55 -0.0 0 0 862.00 509.28
  L 862.00 474.52
  A 1.09 0.96 76.9 0 1 862.49 473.61
  L 875.95 466.00
  A 1.12 0.95 -19.6 0 0 876.52 465.02
  L 875.35 453.96
  A 0.73 0.71 -12.6 0 0 874.39 453.37
  Q 867.62 455.77 861.42 459.73
  A 0.42 0.37 -23.0 0 1 860.80 459.53
  Z"
/>
<path fill="#6148ed" d="
  M 625.27 110.69
  Q 625.43 101.96 624.98 92.76
  Q 624.91 91.37 626.11 92.06
  L 701.58 135.63
  A 1.85 1.84 -75.2 0 1 702.50 137.23
  L 702.50 224.40
  Q 702.50 225.54 701.51 224.97
  L 625.74 181.19
  A 0.89 0.88 -75.6 0 1 625.30 180.44
  Q 624.63 145.57 625.27 110.69
  Z"
/>
<path fill="#15151e" d="
  M 176.96 188.18
  L 177.25 172.37
  A 0.89 0.86 1.0 0 0 176.37 171.49
  L 165.69 171.44
  A 0.71 0.70 -89.6 0 1 165.00 170.73
  L 165.05 156.07
  A 0.54 0.53 89.4 0 1 165.56 155.54
  Q 180.13 154.88 194.69 155.54
  A 0.52 0.52 1.1 0 1 195.19 156.06
  L 195.25 198.92
  A 1.51 1.51 -14.4 0 1 194.47 200.24
  Q 185.59 205.13 176.00 205.97
  C 155.88 207.73 137.26 201.76 132.25 180.00
  Q 128.97 165.75 131.21 150.79
  C 133.79 133.60 141.17 120.86 159.27 117.93
  C 169.13 116.33 181.80 117.18 191.15 121.27
  A 1.26 1.24 18.5 0 1 191.88 122.70
  L 188.65 136.22
  A 0.87 0.86 15.1 0 1 187.55 136.84
  C 174.78 132.96 155.77 131.33 150.96 148.00
  Q 146.46 163.56 151.50 178.25
  C 155.31 189.35 165.77 189.72 176.45 188.73
  A 0.56 0.55 88.3 0 0 176.96 188.18
  Z"
/>
<path fill="#15151e" d="
  M 316.94 168.56
  L 293.91 168.50
  A 0.66 0.66 0.1 0 0 293.25 169.16
  L 293.25 203.88
  A 0.81 0.81 -0.4 0 1 292.45 204.69
  C 287.41 204.76 282.19 204.52 277.09 204.83
  C 274.34 205.00 275.01 202.72 274.99 200.92
  Q 274.74 161.05 275.18 121.18
  A 0.52 0.50 -89.4 0 1 275.68 120.67
  L 292.42 120.53
  A 0.87 0.83 89.7 0 1 293.26 121.40
  L 293.43 151.31
  A 0.50 0.49 89.4 0 0 293.93 151.81
  L 317.05 151.58
  A 0.52 0.52 -0.6 0 0 317.56 151.06
  L 317.75 121.05
  A 0.56 0.56 -89.5 0 1 318.31 120.50
  L 335.06 120.50
  A 0.69 0.69 0.0 0 1 335.75 121.19
  L 335.75 203.76
  A 0.99 0.99 0.0 0 1 334.76 204.75
  L 318.78 204.70
  A 1.37 1.33 -89.8 0 1 317.46 203.33
  L 317.45 169.06
  A 0.51 0.50 0.0 0 0 316.94 168.56
  Z"
/>
<path fill="#15151e" d="
  M 423.26 148.96
  C 431.85 144.57 445.33 143.43 452.54 150.97
  C 461.92 160.80 460.77 185.19 455.44 196.44
  C 449.33 209.32 428.65 208.41 419.24 200.88
  Q 418.12 199.98 418.33 203.15
  A 1.29 1.22 87.5 0 1 417.15 204.51
  L 405.35 204.73
  A 0.87 0.84 89.7 0 1 404.50 203.86
  L 404.56 121.31
  A 0.81 0.81 0.0 0 1 405.37 120.50
  L 421.78 120.50
  A 0.98 0.97 90.0 0 1 422.75 121.48
  L 422.81 148.68
  A 0.31 0.31 76.6 0 0 423.26 148.96
  Z
  M 422.67 163.69
  L 422.52 188.04
  A 1.39 1.36 12.4 0 0 423.35 189.31
  C 428.56 191.58 438.37 193.70 440.18 185.93
  Q 442.34 176.66 440.26 167.35
  C 438.32 158.65 429.00 159.17 423.11 162.91
  A 0.94 0.94 74.6 0 0 422.67 163.69
  Z"
/>
<circle fill="#15151e" cx="212.75" cy="132.43" r="10.10"/>
<path fill="#15151e" d="
  M 255.32 147.19
  L 267.31 147.42
  A 0.54 0.52 0.0 0 1 267.84 147.93
  L 267.99 161.38
  A 0.94 0.87 -1.0 0 1 267.07 162.26
  L 255.50 162.47
  A 0.54 0.53 -89.4 0 0 254.98 162.99
  Q 254.48 173.66 254.90 184.33
  C 255.21 191.96 261.27 191.84 267.27 191.45
  A 0.92 0.92 -1.8 0 1 268.25 192.37
  C 268.25 195.69 268.13 198.95 268.38 202.14
  C 268.64 205.40 266.19 205.01 264.02 205.48
  C 254.86 207.46 242.49 205.73 238.59 196.19
  Q 237.28 193.00 237.12 185.14
  Q 236.89 174.10 236.93 163.06
  A 0.55 0.50 -88.9 0 0 236.44 162.50
  L 228.36 162.31
  A 0.88 0.82 0.7 0 1 227.50 161.49
  L 227.50 150.70
  A 0.79 0.76 82.9 0 1 228.07 149.94
  L 236.45 147.79
  A 0.64 0.62 -7.1 0 0 236.94 147.18
  L 237.06 131.57
  A 0.55 0.54 87.8 0 1 237.56 131.02
  Q 245.88 130.40 254.48 130.96
  A 0.55 0.54 1.7 0 1 255.00 131.50
  L 254.83 146.68
  A 0.50 0.50 89.2 0 0 255.32 147.19
  Z"
/>
<path fill="#423cb8" d="
  M 874.31 230.57
  A 0.52 0.52 -15.0 0 1 874.05 231.02
  L 797.76 274.99
  A 0.51 0.51 75.0 0 1 797.00 274.55
  L 797.00 186.49
  A 0.90 0.88 -15.3 0 1 797.45 185.72
  L 873.84 141.69
  Q 874.51 141.31 874.50 142.08
  C 874.39 171.56 874.88 201.11 874.31 230.57
  Z"
/>
<path fill="#6148ed" d="
  M 787.87 275.07
  C 762.27 260.61 736.79 245.88 711.49 230.94
  A 0.87 0.86 -75.0 0 1 711.06 230.19
  Q 710.90 166.79 711.00 144.50
  C 711.00 143.77 710.14 140.93 711.98 141.98
  Q 750.14 163.75 787.38 185.54
  A 2.26 2.25 -75.0 0 1 788.50 187.49
  L 788.44 274.74
  A 0.38 0.38 14.7 0 1 787.87 275.07
  Z"
/>
<rect fill="#15151e" x="203.50" y="147.26" width="18.24" height="57.40" rx="0.96"/>
<path fill="#15151e" d="
  M 382.46 201.32
  Q 373.99 206.37 364.07 206.27
  C 348.81 206.11 343.09 199.16 343.17 184.25
  Q 343.25 166.75 343.25 148.29
  A 0.81 0.81 -2.3 0 1 344.00 147.48
  Q 352.35 146.88 360.94 147.52
  A 0.53 0.52 2.9 0 1 361.43 148.05
  Q 361.38 165.79 361.70 183.53
  C 361.88 193.76 370.17 192.54 376.94 189.43
  A 2.31 2.26 78.2 0 0 378.26 187.36
  L 378.43 148.19
  A 0.58 0.56 -3.4 0 1 378.94 147.63
  Q 387.30 146.77 395.68 147.52
  A 0.55 0.54 2.3 0 1 396.19 148.06
  L 396.25 204.08
  A 0.68 0.67 0.0 0 1 395.57 204.75
  Q 390.25 204.75 385.25 204.69
  Q 383.48 204.67 383.76 202.16
  Q 383.95 200.44 382.46 201.32
  Z"
/>
<path fill="#ffffff" d="
  M 423.11 162.91
  C 429.00 159.17 438.32 158.65 440.26 167.35
  Q 442.34 176.66 440.18 185.93
  C 438.37 193.70 428.56 191.58 423.35 189.31
  A 1.39 1.36 12.4 0 1 422.52 188.04
  L 422.67 163.69
  A 0.94 0.94 74.6 0 1 423.11 162.91
  Z"
/>
<path fill="#211f20" d="
  M 320.67 395.17
  Q 316.56 395.07 300.69 395.44
  Q 294.21 395.58 266.79 395.00
  C 241.13 391.01 217.31 385.49 203.20 361.17
  A 0.88 0.85 -14.9 0 0 202.43 360.74
  Q 166.14 361.93 131.16 370.89
  C 130.58 371.04 129.23 370.98 129.84 370.12
  A 3.18 3.15 10.7 0 1 131.66 368.89
  Q 166.47 360.34 201.42 359.29
  A 0.41 0.40 -8.9 0 0 201.80 358.78
  Q 200.76 355.18 199.00 353.21
  Q 199.59 352.28 199.00 351.90
  C 191.32 326.11 191.08 298.80 209.79 276.98
  A 1.12 1.10 -32.8 0 0 210.02 275.94
  Q 204.20 255.69 211.69 236.29
  A 1.13 1.12 8.8 0 1 212.68 235.57
  C 227.08 234.68 241.86 242.78 253.20 250.68
  A 3.23 3.22 55.5 0 0 255.82 251.17
  Q 292.05 242.21 327.54 250.45
  A 2.01 2.00 33.9 0 0 329.14 250.14
  C 340.35 242.32 354.76 234.64 368.75 235.57
  A 0.97 0.95 -8.5 0 1 369.59 236.18
  Q 376.55 254.34 372.29 273.19
  A 1.42 1.41 -60.3 0 0 372.64 274.48
  C 387.67 290.42 390.89 306.83 389.86 327.99
  Q 389.29 339.67 386.84 351.40
  A 0.50 0.50 5.0 0 0 387.35 352.00
  Q 419.91 350.51 452.19 355.56
  Q 454.16 355.87 457.21 356.68
  A 0.89 0.80 2.5 0 1 457.83 357.29
  C 458.22 359.08 455.81 358.01 455.03 357.88
  Q 421.25 352.13 386.99 353.48
  A 0.90 0.63 5.3 0 0 386.22 353.92
  L 384.54 358.82
  A 0.42 0.38 9.0 0 0 384.95 359.32
  Q 421.22 359.84 456.37 369.16
  C 457.80 369.54 458.12 371.43 456.22 370.94
  Q 421.19 361.83 384.13 360.72
  A 1.01 0.99 -76.4 0 0 383.20 361.30
  C 371.83 385.95 344.95 392.18 320.67 395.17
  Z
  M 220.29 336.25
  C 215.84 362.16 230.72 380.15 255.75 385.00
  C 270.68 387.89 285.73 388.27 301.50 388.11
  C 326.08 387.87 358.75 387.02 365.02 356.50
  C 366.72 348.19 367.09 339.29 363.89 331.82
  C 353.33 305.05 329.61 309.48 305.75 311.00
  Q 293.10 311.81 277.00 310.82
  C 260.32 309.80 240.87 306.32 228.44 320.69
  C 225.03 324.63 220.38 330.84 220.29 336.25
  Z"
/>
<path fill="#6148ed" d="
  M 711.75 330.45
  A 1.49 1.48 15.0 0 1 711.00 329.16
  L 711.00 241.81
  A 0.58 0.58 15.0 0 1 711.87 241.31
  L 788.06 285.08
  A 0.90 0.87 -75.6 0 1 788.50 285.85
  L 788.50 374.04
  Q 788.50 374.79 787.85 374.42
  L 711.75 330.45
  Z"
/>
<path fill="#be9c8a" d="
  M 363.89 331.82
  Q 359.58 324.80 353.33 319.78
  C 343.02 311.51 331.25 312.10 317.81 313.39
  C 299.51 315.13 281.91 315.16 263.62 313.19
  C 242.76 310.95 228.62 316.54 220.29 336.25
  C 220.38 330.84 225.03 324.63 228.44 320.69
  C 240.87 306.32 260.32 309.80 277.00 310.82
  Q 293.10 311.81 305.75 311.00
  C 329.61 309.48 353.33 305.05 363.89 331.82
  Z"
/>
<path fill="#f4cbb3" d="
  M 363.89 331.82
  C 367.09 339.29 366.72 348.19 365.02 356.50
  C 358.75 387.02 326.08 387.87 301.50 388.11
  C 285.73 388.27 270.68 387.89 255.75 385.00
  C 230.72 380.15 215.84 362.16 220.29 336.25
  C 228.62 316.54 242.76 310.95 263.62 313.19
  C 281.91 315.16 299.51 315.13 317.81 313.39
  C 331.25 312.10 343.02 311.51 353.33 319.78
  Q 359.58 324.80 363.89 331.82
  Z
  M 331.59 323.25
  Q 324.98 327.68 322.50 333.46
  Q 322.33 333.87 322.02 334.10
  A 1.52 0.54 -28.1 0 0 321.40 334.78
  C 317.89 345.39 319.62 362.78 332.48 366.49
  C 352.84 372.37 359.02 323.66 333.62 322.67
  A 3.42 3.41 29.0 0 0 331.59 323.25
  Z
  M 253.1561 367.0095
  A 22.04 15.41 90.4 0 0 268.7196 345.0776
  A 22.04 15.41 90.4 0 0 253.4639 322.9305
  A 22.04 15.41 90.4 0 0 237.9004 344.8624
  A 22.04 15.41 90.4 0 0 253.1561 367.0095
  Z
  M 296.83 364.54
  A 3.72 3.72 0.0 0 0 293.11 360.82
  A 3.72 3.72 0.0 0 0 289.39 364.54
  A 3.72 3.72 0.0 0 0 293.11 368.26
  A 3.72 3.72 0.0 0 0 296.83 364.54
  Z
  M 284.37 374.23
  C 286.63 382.69 297.39 381.79 301.36 375.41
  C 303.05 372.70 300.90 371.48 299.14 374.28
  Q 295.55 379.97 289.98 377.15
  Q 288.50 376.41 287.60 375.02
  Q 285.51 371.83 284.49 373.32
  A 1.16 0.90 59.8 0 0 284.37 374.23
  Z"
/>
<path fill="#ffffff" d="
  M 331.59 323.25
  A 3.42 3.41 29.0 0 1 333.62 322.67
  C 359.02 323.66 352.84 372.37 332.48 366.49
  C 319.62 362.78 317.89 345.39 321.40 334.78
  A 1.52 0.54 -28.1 0 1 322.02 334.10
  Q 322.33 333.87 322.50 333.46
  Q 324.98 327.68 331.59 323.25
  Z
  M 333.6855 359.8100
  A 14.63 10.13 89.9 0 0 343.7900 345.1623
  A 14.63 10.13 89.9 0 0 333.6345 330.5500
  A 14.63 10.13 89.9 0 0 323.5300 345.1977
  A 14.63 10.13 89.9 0 0 333.6855 359.8100
  Z"
/>
<path fill="#fdfaf7" d="
  M 253.1561 367.0095
  A 22.04 15.41 90.4 0 1 237.9004 344.8624
  A 22.04 15.41 90.4 0 1 253.4639 322.9305
  A 22.04 15.41 90.4 0 1 268.7196 345.0776
  A 22.04 15.41 90.4 0 1 253.1561 367.0095
  Z
  M 254.5087 359.8399
  A 14.69 10.14 90.2 0 0 264.6999 345.1854
  A 14.69 10.14 90.2 0 0 254.6113 330.4601
  A 14.69 10.14 90.2 0 0 244.4201 345.1146
  A 14.69 10.14 90.2 0 0 254.5087 359.8399
  Z"
/>
<path fill="#a95e53" d="
  M 254.5087 359.8399
  A 14.69 10.14 90.2 0 1 244.4201 345.1146
  A 14.69 10.14 90.2 0 1 254.6113 330.4601
  A 14.69 10.14 90.2 0 1 264.6999 345.1854
  A 14.69 10.14 90.2 0 1 254.5087 359.8399
  Z
  M 253.08 338.59
  A 2.83 2.83 0.0 0 0 250.25 335.76
  A 2.83 2.83 0.0 0 0 247.42 338.59
  A 2.83 2.83 0.0 0 0 250.25 341.42
  A 2.83 2.83 0.0 0 0 253.08 338.59
  Z"
/>
<path fill="#a95e53" d="
  M 333.6855 359.8100
  A 14.63 10.13 89.9 0 1 323.5300 345.1977
  A 14.63 10.13 89.9 0 1 333.6345 330.5500
  A 14.63 10.13 89.9 0 1 343.7900 345.1623
  A 14.63 10.13 89.9 0 1 333.6855 359.8100
  Z
  M 333.11 338.51
  A 2.59 2.59 0.0 0 0 330.52 335.92
  A 2.59 2.59 0.0 0 0 327.93 338.51
  A 2.59 2.59 0.0 0 0 330.52 341.10
  A 2.59 2.59 0.0 0 0 333.11 338.51
  Z"
/>
<circle fill="#fdfaf7" cx="250.25" cy="338.59" r="2.83"/>
<circle fill="#fdfaf7" cx="330.52" cy="338.51" r="2.59"/>
<path fill="#4a4a4b" d="
  M 199.00 351.90
  Q 199.59 352.28 199.00 353.21
  Q 164.29 352.52 130.05 358.11
  A 0.51 0.45 -7.3 0 1 129.46 357.71
  Q 129.38 356.75 130.56 356.54
  Q 164.52 350.46 199.00 351.90
  Z"
/>
<circle fill="#a95e53" cx="293.11" cy="364.54" r="3.72"/>
<path fill="#a95e53" d="
  M 301.36 375.41
  C 297.39 381.79 286.63 382.69 284.37 374.23
  A 1.16 0.90 59.8 0 1 284.49 373.32
  Q 285.51 371.83 287.60 375.02
  Q 288.50 376.41 289.98 377.15
  Q 295.55 379.97 299.14 374.28
  C 300.90 371.48 303.05 372.70 301.36 375.41
  Z"
/>
<path fill="#211f20" d="
  M 264.50 397.21
  Q 264.37 400.45 266.93 399.77
  C 272.25 398.36 277.37 398.34 285.31 397.94
  C 300.72 397.17 317.34 396.46 328.25 408.00
  Q 329.33 409.15 330.54 408.00
  Q 332.89 413.54 333.00 420.25
  Q 333.36 442.60 333.26 454.40
  C 333.24 458.17 332.90 462.53 333.77 465.82
  C 335.42 472.08 339.34 473.97 344.28 477.27
  A 1.26 1.26 11.7 0 1 344.80 478.06
  Q 345.59 481.93 341.35 482.28
  Q 334.42 481.79 328.35 479.88
  C 316.50 474.68 317.39 464.86 317.46 452.50
  C 317.80 444.15 318.66 431.02 316.09 423.15
  C 315.96 422.74 312.76 415.00 312.75 419.19
  Q 312.72 435.59 312.79 452.00
  Q 312.72 464.00 312.73 476.00
  Q 312.74 483.77 319.00 488.04
  Q 320.73 492.16 317.09 493.39
  L 314.29 493.75
  Q 308.10 492.50 302.88 489.21
  C 292.35 480.58 296.22 466.84 295.46 452.75
  Q 295.96 435.14 295.76 417.52
  C 295.73 415.06 296.01 412.01 292.30 413.70
  A 0.96 0.95 -12.8 0 0 291.75 414.56
  L 291.79 452.50
  C 291.91 467.12 293.80 479.67 286.71 487.25
  Q 280.57 493.15 272.00 493.79
  L 270.26 493.73
  Q 266.40 492.04 269.13 487.53
  C 275.29 484.16 275.03 479.04 274.96 471.75
  Q 274.70 444.66 274.69 418.23
  Q 274.69 416.46 273.70 417.93
  Q 270.69 422.37 270.25 427.75
  Q 269.72 434.27 270.00 462.50
  Q 270.12 474.51 259.69 479.60
  Q 253.78 481.80 247.25 482.04
  Q 244.95 482.25 242.95 481.24
  A 1.24 1.22 4.4 0 1 242.32 480.52
  Q 241.36 477.61 244.31 476.31
  Q 257.61 470.45 253.97 455.14
  Q 254.77 444.15 254.50 432.24
  A 0.49 0.49 -6.7 0 0 253.90 431.77
  C 234.16 436.10 216.05 431.32 206.83 412.11
  Q 201.63 401.26 190.88 395.92
  Q 188.41 394.69 186.75 392.35
  Q 185.27 390.26 187.65 389.33
  C 196.43 385.94 207.62 392.44 212.44 399.56
  C 219.72 410.32 225.86 417.97 240.25 417.49
  Q 247.55 417.25 253.83 414.12
  Q 255.47 413.30 255.96 411.52
  Q 258.44 402.62 264.50 397.21
  Z
  M 201.5324 394.2787
  A 1.48 1.15 32.2 0 0 200.8928 392.5169
  A 1.48 1.15 32.2 0 0 199.0276 392.7013
  A 1.48 1.15 32.2 0 0 199.6672 394.4631
  A 1.48 1.15 32.2 0 0 201.5324 394.2787
  Z
  M 207.2548 398.6600
  A 1.85 1.16 36.1 0 0 206.4435 396.6327
  A 1.85 1.16 36.1 0 0 204.2652 396.4800
  A 1.85 1.16 36.1 0 0 205.0765 398.5073
  A 1.85 1.16 36.1 0 0 207.2548 398.6600
  Z
  M 212.3956 405.9362
  A 2.30 1.36 57.8 0 0 212.3208 403.2653
  A 2.30 1.36 57.8 0 0 209.9444 402.0438
  A 2.30 1.36 57.8 0 0 210.0192 404.7147
  A 2.30 1.36 57.8 0 0 212.3956 405.9362
  Z
  M 218.7556 413.4199
  A 2.54 1.45 50.5 0 0 218.2589 410.5377
  A 2.54 1.45 50.5 0 0 215.5244 409.5001
  A 2.54 1.45 50.5 0 0 216.0211 412.3823
  A 2.54 1.45 50.5 0 0 218.7556 413.4199
  Z
  M 226.4582 419.1000
  A 2.41 1.56 31.8 0 0 225.2321 416.5042
  A 2.41 1.56 31.8 0 0 222.3618 416.5600
  A 2.41 1.56 31.8 0 0 223.5879 419.1558
  A 2.41 1.56 31.8 0 0 226.4582 419.1000
  Z
  M 251.15 419.63
  C 254.33 421.67 254.41 414.75 251.01 417.71
  A 1.20 1.20 40.9 0 0 251.15 419.63
  Z
  M 235.8690 420.9961
  A 2.39 1.54 7.6 0 0 233.7037 419.1535
  A 2.39 1.54 7.6 0 0 231.1310 420.3639
  A 2.39 1.54 7.6 0 0 233.2963 422.2065
  A 2.39 1.54 7.6 0 0 235.8690 420.9961
  Z
  M 246.0383 420.5909
  A 2.45 1.64 -5.6 0 0 243.4400 419.1978
  A 2.45 1.64 -5.6 0 0 241.1617 421.0691
  A 2.45 1.64 -5.6 0 0 243.7600 422.4622
  A 2.45 1.64 -5.6 0 0 246.0383 420.5909
  Z"
/>
<ellipse fill="#e6f0f2" cx="0.00" cy="0.00" transform="translate(200.28,393.49) rotate(32.2)" rx="1.48" ry="1.15"/>
<path fill="#000000" d="
  M 266.79 395.00
  Q 294.21 395.58 300.69 395.44
  Q 316.56 395.07 320.67 395.17
  Q 327.49 400.28 330.54 408.00
  Q 329.33 409.15 328.25 408.00
  C 317.34 396.46 300.72 397.17 285.31 397.94
  C 277.37 398.34 272.25 398.36 266.93 399.77
  Q 264.37 400.45 264.50 397.21
  L 266.79 395.00
  Z"
/>
<ellipse fill="#ffffff" cx="0.00" cy="0.00" transform="translate(205.76,397.57) rotate(36.1)" rx="1.85" ry="1.16"/>
<path fill="#a6dbed" d="
  M 189.30 409.18
  Q 186.60 408.66 187.13 406.19
  L 188.77 398.66
  A 0.78 0.71 -84.8 0 1 189.42 398.06
  C 190.74 397.97 195.33 410.35 189.30 409.18
  Z"
/>
<path fill="#000000" d="
  M 540.81 411.06
  L 540.92 417.45
  A 0.52 0.49 88.3 0 1 540.45 417.98
  L 537.93 418.07
  A 0.51 0.49 88.9 0 1 537.42 417.56
  L 537.30 400.31
  A 0.78 0.71 79.7 0 1 537.75 399.59
  Q 538.44 399.33 539.25 399.50
  A 1.93 1.87 0.9 0 1 540.75 401.00
  Q 541.29 403.88 540.74 406.79
  A 0.47 0.46 5.0 0 0 541.21 407.33
  L 547.50 407.25
  A 0.51 0.50 -0.6 0 0 548.00 406.75
  L 548.00 400.34
  A 0.64 0.63 -6.2 0 1 548.50 399.72
  C 551.98 398.96 551.50 399.79 551.50 402.67
  Q 551.50 409.03 551.50 415.40
  C 551.50 418.13 551.78 418.76 548.60 418.05
  A 0.78 0.77 6.6 0 1 548.00 417.30
  L 548.00 410.86
  A 0.54 0.50 89.5 0 0 547.49 410.32
  L 541.31 410.50
  A 0.55 0.52 88.4 0 0 540.81 411.06
  Z"
/>
<path fill="#000000" d="
  M 584.62 404.94
  Q 586.86 404.08 590.05 404.89
  A 1.61 1.44 7.3 0 1 591.27 406.30
  L 591.53 417.50
  A 0.71 0.67 -9.8 0 1 591.03 418.16
  Q 587.52 419.21 588.25 415.25
  Q 588.68 412.89 587.90 408.42
  A 0.70 0.68 88.7 0 0 587.32 407.85
  Q 585.23 407.56 583.67 408.96
  A 1.25 1.07 72.7 0 0 583.30 409.82
  L 583.20 417.43
  A 0.72 0.66 83.6 0 1 582.71 418.10
  Q 581.45 418.47 580.21 417.97
  A 0.79 0.74 -79.5 0 1 579.75 417.25
  L 579.75 400.24
  A 0.67 0.65 82.6 0 1 580.23 399.60
  Q 583.97 398.61 583.09 403.68
  Q 582.75 405.65 584.62 404.94
  Z"
/>
<rect fill="#000000" x="-1.85" y="-1.63" transform="translate(596.41,401.12) rotate(-2.0)" width="3.70" height="3.26" rx="0.71"/>
<path fill="#000000" d="
  M 603.41 417.40
  Q 601.59 416.67 601.29 414.74
  C 600.75 411.29 600.37 405.68 601.26 402.84
  C 602.50 398.85 608.54 399.38 611.97 400.07
  A 0.96 0.94 1.0 0 1 612.72 400.83
  C 613.36 404.40 607.89 401.83 605.24 403.31
  A 0.97 0.83 -16.4 0 0 604.75 404.06
  L 604.60 413.06
  A 1.98 1.79 7.9 0 0 606.12 414.88
  C 608.12 415.37 612.39 413.63 612.80 416.32
  A 1.33 1.33 -12.2 0 1 611.85 417.79
  Q 607.49 419.03 603.41 417.40
  Z"
/>
<ellipse fill="#ffffff" cx="0.00" cy="0.00" transform="translate(211.17,403.99) rotate(57.8)" rx="2.30" ry="1.36"/>
<path fill="#000000" d="
  M 560.46 407.68
  Q 557.90 407.03 555.24 407.42
  A 0.66 0.61 -14.7 0 1 554.54 407.05
  Q 553.70 405.07 555.75 404.75
  C 567.21 402.95 564.75 409.83 564.75 417.50
  A 0.56 0.55 -85.6 0 1 564.11 418.05
  Q 560.48 417.52 557.53 418.19
  Q 554.47 418.88 554.00 415.77
  C 552.70 407.06 563.18 413.80 561.12 408.27
  A 0.98 0.94 -2.0 0 0 560.46 407.68
  Z
  M 561.2865 414.2597
  A 2.09 1.38 -3.3 0 0 559.1206 413.0023
  A 2.09 1.38 -3.3 0 0 557.1135 414.5003
  A 2.09 1.38 -3.3 0 0 559.2794 415.7577
  A 2.09 1.38 -3.3 0 0 561.2865 414.2597
  Z"
/>
<path fill="#000000" d="
  M 570.93 408.71
  Q 571.57 410.12 573.06 410.19
  C 579.10 410.47 578.59 418.38 573.25 418.39
  Q 570.86 418.40 568.40 417.98
  A 1.08 1.08 -88.6 0 1 567.50 417.03
  Q 567.27 414.84 570.34 415.87
  A 3.03 3.02 -54.1 0 0 573.11 415.42
  Q 574.61 414.29 573.43 413.34
  Q 572.07 412.26 570.34 412.10
  C 567.92 411.87 567.70 410.77 567.55 408.60
  C 567.15 402.47 578.60 404.21 576.87 406.79
  A 1.40 1.39 18.4 0 1 575.64 407.40
  Q 572.33 407.19 571.13 407.93
  A 0.63 0.58 61.9 0 0 570.93 408.71
  Z"
/>
<path fill="#000000" d="
  M 626.6735 413.4494
  A 4.81 4.81 0.0 0 1 621.8719 418.2678
  L 619.3519 418.2722
  A 4.81 4.81 0.0 0 1 614.5335 413.4706
  L 614.5265 409.4506
  A 4.81 4.81 0.0 0 1 619.3281 404.6322
  L 621.8481 404.6278
  A 4.81 4.81 0.0 0 1 626.6665 409.4294
  L 626.6735 413.4494
  Z
  M 623.2034 409.6774
  A 2.19 2.19 0.0 0 0 620.9944 407.5066
  L 620.1744 407.5137
  A 2.19 2.19 0.0 0 0 618.0036 409.7228
  L 618.0366 413.5026
  A 2.19 2.19 0.0 0 0 620.2456 415.6734
  L 621.0656 415.6663
  A 2.19 2.19 0.0 0 0 623.2364 413.4572
  L 623.2034 409.6774
  Z"
/>
<path fill="#000000" d="
  M 642.79 418.29
  L 642.21 422.37
  A 0.89 0.75 85.9 0 1 641.71 423.06
  Q 638.47 424.24 638.66 422.04
  C 639.03 417.82 638.75 413.26 638.75 409.00
  C 638.75 406.91 637.91 403.14 641.82 405.25
  A 1.04 1.01 47.3 0 0 642.71 405.30
  C 650.49 402.11 651.13 408.69 650.76 413.84
  Q 650.35 419.39 643.43 417.92
  A 0.55 0.46 10.3 0 0 642.79 418.29
  Z
  M 647.22 409.06
  A 1.63 1.63 0.0 0 0 645.59 407.43
  L 643.97 407.43
  A 1.63 1.63 0.0 0 0 642.34 409.06
  L 642.34 413.66
  A 1.63 1.63 0.0 0 0 643.97 415.29
  L 645.59 415.29
  A 1.63 1.63 0.0 0 0 647.22 413.66
  L 647.22 409.06
  Z"
/>
<rect fill="#000000" x="594.50" y="404.74" width="3.76" height="13.50" rx="0.52"/>
<path fill="#000000" d="
  M 633.18 409.55
  Q 632.17 413.25 632.75 415.75
  Q 633.51 419.01 629.87 418.16
  A 0.80 0.80 -83.7 0 1 629.25 417.38
  C 629.25 413.67 629.38 410.11 629.14 406.71
  Q 628.93 403.56 632.82 405.43
  A 1.12 1.10 42.3 0 0 633.85 405.39
  C 637.71 403.10 636.95 408.56 633.80 409.01
  A 0.78 0.73 2.0 0 0 633.18 409.55
  Z"
/>
<rect fill="#ffffff" x="642.34" y="407.43" width="4.88" height="7.86" rx="1.63"/>
<rect fill="#ffffff" x="-2.60" y="-4.08" transform="translate(620.62,411.59) rotate(-0.5)" width="5.20" height="8.16" rx="2.19"/>
<ellipse fill="#e6f0f2" cx="0.00" cy="0.00" transform="translate(217.14,411.46) rotate(50.5)" rx="2.54" ry="1.45"/>
<ellipse fill="#ffffff" cx="0.00" cy="0.00" transform="translate(559.20,414.38) rotate(-3.3)" rx="2.09" ry="1.38"/>
<path fill="#ffffff" d="
  M 295.46 452.75
  L 291.79 452.50
  L 291.75 414.56
  A 0.96 0.95 -12.8 0 1 292.30 413.70
  C 296.01 412.01 295.73 415.06 295.76 417.52
  Q 295.96 435.14 295.46 452.75
  Z"
/>
<ellipse fill="#e6f0f2" cx="0.00" cy="0.00" transform="translate(224.41,417.83) rotate(31.8)" rx="2.41" ry="1.56"/>
<path fill="#e6f0f2" d="
  M 251.15 419.63
  A 1.20 1.20 40.9 0 1 251.01 417.71
  C 254.41 414.75 254.33 421.67 251.15 419.63
  Z"
/>
<path fill="#a6dbed" d="
  M 269.13 487.53
  Q 267.90 486.71 266.86 485.51
  C 264.73 483.05 262.23 481.57 259.69 479.60
  Q 270.12 474.51 270.00 462.50
  Q 269.72 434.27 270.25 427.75
  Q 270.69 422.37 273.70 417.93
  Q 274.69 416.46 274.69 418.23
  Q 274.70 444.66 274.96 471.75
  C 275.03 479.04 275.29 484.16 269.13 487.53
  Z"
/>
<path fill="#ffffff" d="
  M 317.46 452.50
  L 312.79 452.00
  Q 312.72 435.59 312.75 419.19
  C 312.76 415.00 315.96 422.74 316.09 423.15
  C 318.66 431.02 317.80 444.15 317.46 452.50
  Z"
/>
<ellipse fill="#ffffff" cx="0.00" cy="0.00" transform="translate(233.50,420.68) rotate(7.6)" rx="2.39" ry="1.54"/>
<ellipse fill="#e6f0f2" cx="0.00" cy="0.00" transform="translate(243.60,420.83) rotate(-5.6)" rx="2.45" ry="1.64"/>
<path fill="#000000" d="
  M 774.81 465.57
  L 774.75 508.97
  A 0.73 0.69 -89.6 0 1 774.05 509.70
  L 761.44 509.59
  A 0.52 0.52 0.6 0 1 760.93 509.07
  L 760.75 466.07
  A 1.17 1.12 0.3 0 0 759.60 464.96
  L 752.43 464.86
  A 0.56 0.49 89.9 0 1 751.95 464.31
  L 751.75 454.97
  A 0.74 0.73 -1.2 0 1 752.48 454.22
  L 760.06 454.11
  A 0.56 0.52 -90.0 0 0 760.57 453.56
  C 760.74 445.38 760.25 438.60 764.68 433.75
  C 770.32 427.57 782.78 428.27 790.02 430.51
  A 0.71 0.69 -77.6 0 1 790.50 431.29
  L 789.28 440.44
  A 0.70 0.68 -80.4 0 1 788.46 441.04
  C 785.36 440.40 777.56 439.20 775.63 442.42
  C 774.25 444.74 774.67 450.73 774.76 453.50
  A 0.51 0.51 89.4 0 0 775.27 454.00
  L 788.26 454.00
  A 0.75 0.73 -87.5 0 1 788.99 454.81
  L 788.26 464.15
  A 0.91 0.89 -87.9 0 1 787.37 465.00
  L 775.30 465.05
  A 0.52 0.50 89.4 0 0 774.81 465.57
  Z"
/>
<path fill="#000000" d="
  M 573.06 446.81
  L 573.00 509.15
  A 0.59 0.58 -89.5 0 1 572.41 509.74
  L 559.05 509.70
  A 0.51 0.49 90.0 0 1 558.56 509.19
  L 558.50 446.73
  A 0.68 0.66 -0.0 0 0 557.82 446.07
  L 537.77 446.24
  A 0.52 0.52 0.0 0 1 537.25 445.72
  L 537.25 434.18
  A 0.68 0.67 -90.0 0 1 537.92 433.50
  L 593.69 433.56
  A 0.51 0.51 89.4 0 1 594.20 434.06
  L 594.25 445.59
  A 0.68 0.66 0.0 0 1 593.57 446.25
  L 573.57 446.31
  A 0.51 0.50 -0.0 0 0 573.06 446.81
  Z"
/>
<path fill="#a6dbed" d="
  M 312.79 452.00
  L 317.46 452.50
  C 317.39 464.86 316.50 474.68 328.35 479.88
  Q 322.68 482.92 319.00 488.04
  Q 312.74 483.77 312.73 476.00
  Q 312.72 464.00 312.79 452.00
  Z"
/>
<path fill="#9ddaf1" d="
  M 291.79 452.50
  L 295.46 452.75
  C 296.22 466.84 292.35 480.58 302.88 489.21
  Q 301.72 490.20 300.66 491.11
  C 295.49 495.58 296.51 509.44 296.00 515.96
  L 291.50 515.96
  C 291.64 507.81 291.89 496.99 286.87 490.09
  A 1.48 0.70 -77.5 0 1 286.67 489.20
  L 286.71 487.25
  C 293.80 479.67 291.91 467.12 291.79 452.50
  Z"
/>
<path fill="#000000" d="
  M 597.83 495.93
  Q 599.52 498.83 602.87 499.17
  Q 612.11 500.10 623.63 497.28
  A 1.00 0.96 -11.9 0 1 624.84 498.04
  L 626.42 506.52
  A 1.02 1.00 -14.5 0 1 625.74 507.66
  Q 614.15 511.60 602.97 510.78
  C 579.22 509.04 582.66 491.27 582.85 474.00
  Q 583.05 455.52 601.25 453.26
  C 614.99 451.56 627.04 456.57 627.50 472.25
  Q 627.79 482.35 627.70 486.69
  A 0.52 0.51 0.6 0 1 627.18 487.19
  L 597.25 487.25
  A 0.57 0.57 3.4 0 0 596.68 487.75
  Q 595.98 492.76 597.83 495.93
  Z
  M 596.83 475.51
  A 0.58 0.57 -4.0 0 0 597.40 476.00
  L 613.50 476.00
  A 0.67 0.67 -87.7 0 0 614.17 475.38
  Q 614.98 466.22 608.65 464.71
  C 601.08 462.92 595.54 467.08 596.83 475.51
  Z"
/>
<path fill="#000000" d="
  M 723.69 464.56
  Q 714.97 464.41 706.86 466.10
  A 0.76 0.73 -10.4 0 1 705.96 465.51
  L 704.49 456.43
  A 0.62 0.57 -13.6 0 1 704.92 455.78
  Q 717.69 451.73 730.68 453.69
  C 741.96 455.40 745.63 460.77 745.83 471.57
  Q 746.17 489.98 745.99 509.09
  A 0.67 0.66 -0.0 0 1 745.32 509.75
  L 735.54 509.75
  A 1.29 1.29 89.5 0 1 734.25 508.48
  Q 734.22 505.56 731.96 506.88
  C 722.71 512.29 706.51 514.49 703.19 500.56
  C 700.56 489.54 703.30 480.11 715.87 479.14
  Q 723.27 478.57 731.43 478.78
  A 0.57 0.57 -87.4 0 0 732.02 478.24
  C 732.38 471.35 733.13 464.73 723.69 464.56
  Z
  M 718.43 499.18
  Q 725.37 500.78 731.52 497.19
  A 0.95 0.86 77.6 0 0 731.95 496.43
  L 732.16 489.32
  A 0.50 0.48 -88.3 0 0 731.69 488.80
  L 719.99 488.75
  Q 717.38 488.74 716.43 491.21
  Q 714.75 495.58 717.59 498.70
  A 1.73 1.53 -11.7 0 0 718.43 499.18
  Z"
/>
<path fill="#000000" d="
  M 840.62 491.05
  A 19.78 19.78 0.0 0 1 820.84 510.83
  L 812.08 510.83
  A 19.78 19.78 0.0 0 1 792.30 491.05
  L 792.30 472.93
  A 19.78 19.78 0.0 0 1 812.08 453.15
  L 820.84 453.15
  A 19.78 19.78 0.0 0 1 840.62 472.93
  L 840.62 491.05
  Z
  M 826.70 473.07
  A 8.23 8.23 0.0 0 0 818.47 464.84
  L 814.49 464.84
  A 8.23 8.23 0.0 0 0 806.26 473.07
  L 806.26 490.73
  A 8.23 8.23 0.0 0 0 814.49 498.96
  L 818.47 498.96
  A 8.23 8.23 0.0 0 0 826.70 490.73
  L 826.70 473.07
  Z"
/>
<path fill="#000000" d="
  M 893.96 458.04
  A 0.69 0.65 68.6 0 0 894.87 458.47
  Q 904.82 453.75 915.74 452.85
  Q 922.72 452.27 926.89 458.42
  A 0.69 0.69 59.6 0 0 927.77 458.65
  C 938.72 453.05 961.64 446.06 962.03 467.30
  Q 962.42 487.81 962.24 509.08
  A 0.67 0.67 89.9 0 1 961.57 509.75
  L 948.77 509.75
  A 0.52 0.52 0.0 0 1 948.25 509.23
  Q 948.25 489.75 948.25 470.75
  C 948.25 462.47 933.92 468.63 930.35 470.42
  A 2.48 2.46 76.8 0 0 928.99 472.63
  L 929.19 509.19
  A 0.51 0.51 -0.6 0 1 928.69 509.70
  L 916.00 509.74
  A 0.76 0.75 -90.0 0 1 915.24 508.97
  C 915.30 502.91 916.47 470.19 913.98 467.49
  C 911.25 464.54 900.22 468.98 896.78 470.74
  A 1.44 1.43 76.5 0 0 896.00 472.02
  L 896.06 509.07
  A 0.52 0.49 -90.0 0 1 895.57 509.59
  L 882.81 509.71
  A 0.52 0.50 -90.0 0 1 882.31 509.19
  L 882.25 454.76
  A 0.71 0.69 -90.0 0 1 882.94 454.05
  L 892.19 454.05
  A 0.71 0.68 -8.4 0 1 892.86 454.53
  L 893.96 458.04
  Z"
/>
<path fill="#000000" d="
  M 649.50 459.69
  L 662.58 453.31
  A 0.85 0.81 73.9 0 1 663.75 453.99
  L 665.03 465.04
  A 0.79 0.72 -19.3 0 1 664.63 465.78
  L 650.98 473.53
  A 1.03 0.93 76.7 0 0 650.50 474.40
  L 650.50 509.19
  A 0.56 0.56 89.8 0 1 649.94 509.75
  L 637.02 509.75
  A 0.58 0.58 -89.5 0 1 636.44 509.16
  L 636.50 454.50
  A 0.50 0.50 0.0 0 1 637.00 454.00
  L 647.52 454.00
  A 0.80 0.75 85.6 0 1 648.27 454.68
  L 648.97 459.45
  A 0.38 0.34 -17.9 0 0 649.50 459.69
  Z"
/>
<path fill="#000000" d="
  M 683.51 459.70
  L 696.98 453.24
  A 0.72 0.70 74.6 0 1 697.98 453.83
  L 699.21 464.53
  A 1.58 1.55 74.0 0 1 698.34 466.13
  Q 691.21 469.51 685.22 473.54
  A 0.97 0.93 74.3 0 0 684.81 474.31
  L 684.51 508.99
  A 0.54 0.50 90.0 0 1 684.01 509.53
  L 671.06 509.71
  A 0.52 0.49 89.5 0 1 670.56 509.19
  L 670.50 454.85
  A 0.85 0.85 0.0 0 1 671.35 454.00
  L 681.62 454.00
  A 0.85 0.84 -3.4 0 1 682.46 454.74
  L 683.01 459.44
  A 0.35 0.34 -16.7 0 0 683.51 459.70
  Z"
/>
<path fill="#000000" d="
  M 861.42 459.73
  Q 867.62 455.77 874.39 453.37
  A 0.73 0.71 -12.6 0 1 875.35 453.96
  L 876.52 465.02
  A 1.12 0.95 -19.6 0 1 875.95 466.00
  L 862.49 473.61
  A 1.09 0.96 76.9 0 0 862.00 474.52
  L 862.00 509.28
  A 0.56 0.55 0.0 0 1 861.44 509.83
  L 848.55 509.76
  A 0.56 0.55 0.5 0 1 848.00 509.21
  L 848.00 454.66
  A 0.66 0.66 -89.9 0 1 848.66 454.00
  L 858.95 454.00
  A 1.19 1.00 83.9 0 1 859.97 454.98
  L 860.80 459.53
  A 0.42 0.37 -23.0 0 0 861.42 459.73
  Z"
/>
<path fill="#9ddaf1" d="
  M 333.50 512.96
  Q 333.10 505.56 333.33 498.16
  C 333.55 491.25 336.39 486.68 341.35 482.28
  Q 345.59 481.93 344.80 478.06
  A 1.26 1.26 11.7 0 0 344.28 477.27
  C 339.34 473.97 335.42 472.08 333.77 465.82
  C 332.90 462.53 333.24 458.17 333.26 454.40
  Q 353.42 456.77 371.19 465.31
  C 391.67 475.16 392.67 491.43 371.63 501.56
  Q 353.49 510.30 333.50 512.96
  Z"
/>
<path fill="#9ddaf1" d="
  M 253.97 455.14
  Q 257.61 470.45 244.31 476.31
  Q 241.36 477.61 242.32 480.52
  A 1.24 1.22 4.4 0 0 242.95 481.24
  Q 244.95 482.25 247.25 482.04
  C 255.40 491.33 255.64 500.29 253.71 512.50
  C 241.20 510.64 205.97 502.12 202.94 485.97
  C 200.89 475.08 214.60 467.04 222.78 463.49
  Q 237.97 456.92 253.97 455.14
  Z"
/>
<path fill="#ffffff" d="
  M 596.83 475.51
  C 595.54 467.08 601.08 462.92 608.65 464.71
  Q 614.98 466.22 614.17 475.38
  A 0.67 0.67 -87.7 0 1 613.50 476.00
  L 597.40 476.00
  A 0.58 0.57 -4.0 0 1 596.83 475.51
  Z"
/>
<rect fill="#ffffff" x="806.26" y="464.84" width="20.44" height="34.12" rx="8.23"/>
<path fill="#7ebbe5" d="
  M 259.69 479.60
  C 262.23 481.57 264.73 483.05 266.86 485.51
  Q 267.90 486.71 269.13 487.53
  Q 266.40 492.04 270.26 493.73
  Q 269.81 503.20 270.25 512.75
  Q 270.29 513.57 269.75 514.79
  Q 261.65 514.19 253.71 512.50
  C 255.64 500.29 255.40 491.33 247.25 482.04
  Q 253.78 481.80 259.69 479.60
  Z"
/>
<path fill="#7ebbe5" d="
  M 328.35 479.88
  Q 334.42 481.79 341.35 482.28
  C 336.39 486.68 333.55 491.25 333.33 498.16
  Q 333.10 505.56 333.50 512.96
  L 317.00 514.96
  Q 318.64 504.21 317.09 493.39
  Q 320.73 492.16 319.00 488.04
  Q 322.68 482.92 328.35 479.88
  Z"
/>
<path fill="#7ebbe5" d="
  M 286.71 487.25
  L 286.67 489.20
  A 1.48 0.70 -77.5 0 0 286.87 490.09
  C 291.89 496.99 291.64 507.81 291.50 515.96
  L 275.03 515.22
  C 274.97 510.87 275.45 496.48 272.00 493.79
  Q 280.57 493.15 286.71 487.25
  Z"
/>
<path fill="#ffffff" d="
  M 717.59 498.70
  Q 714.75 495.58 716.43 491.21
  Q 717.38 488.74 719.99 488.75
  L 731.69 488.80
  A 0.50 0.48 -88.3 0 1 732.16 489.32
  L 731.95 496.43
  A 0.95 0.86 77.6 0 1 731.52 497.19
  Q 725.37 500.78 718.43 499.18
  A 1.73 1.53 -11.7 0 1 717.59 498.70
  Z"
/>
<path fill="#7ebbe5" d="
  M 302.88 489.21
  Q 308.10 492.50 314.29 493.75
  Q 311.66 504.40 313.50 515.21
  Q 304.79 516.30 296.00 515.96
  C 296.51 509.44 295.49 495.58 300.66 491.11
  Q 301.72 490.20 302.88 489.21
  Z"
/>
<path fill="#9ddaf1" d="
  M 317.09 493.39
  Q 318.64 504.21 317.00 514.96
  L 313.50 515.21
  Q 311.66 504.40 314.29 493.75
  L 317.09 493.39
  Z"
/>
<path fill="#a6dbed" d="
  M 270.26 493.73
  L 272.00 493.79
  C 275.45 496.48 274.97 510.87 275.03 515.22
  L 269.75 514.79
  Q 270.29 513.57 270.25 512.75
  Q 269.81 503.20 270.26 493.73
  Z"
/>
</svg>
