<?xml version="1.0" encoding="UTF-8" standalone="no"?>
<!DOCTYPE svg PUBLIC "-//W3C//DTD SVG 1.1//EN" "http://www.w3.org/Graphics/SVG/1.1/DTD/svg11.dtd">
<svg xmlns="http://www.w3.org/2000/svg" version="1.1" viewBox="0 0 1549 1352">
<g stroke-width="2.00" fill="none" stroke-linecap="butt">
<path stroke="#39c2f5" vector-effect="non-scaling-stroke" d="
  M 873.00 193.04
  Q 873.00 347.02 873.00 501.00
  Q 873.00 551.63 845.04 595.25"
/>
<path stroke="#4bcff3" vector-effect="non-scaling-stroke" d="
  M 845.04 595.25
  Q 844.75 594.04 844.75 591.50
  Q 844.75 476.88 844.75 362.25
  Q 844.75 344.38 844.63 342.24
  C 841.71 291.25 800.02 253.56 749.00 253.57
  Q 473.16 253.64 197.28 253.31"
/>
<path stroke="#1292e0" vector-effect="non-scaling-stroke" d="
  M 1356.00 676.04
  Q 1205.99 675.97 1055.99 676.00
  Q 1042.83 676.00 1036.02 676.53
  C 945.61 683.62 873.10 758.30 873.23 850.33
  C 873.36 953.21 872.99 1056.11 873.04 1159.00"
/>
<path stroke="#1f99d4" vector-effect="non-scaling-stroke" d="
  M 197.21 1155.50
  Q 196.97 1154.19 198.61 1154.59
  Q 199.29 1154.75 199.99 1154.75
  Q 468.12 1154.75 736.25 1154.75
  Q 754.09 1154.75 756.24 1154.58
  C 786.34 1152.20 809.43 1130.55 815.71 1101.00"
/>
<path stroke="#21a1df" vector-effect="non-scaling-stroke" d="
  M 815.71 1101.00
  Q 816.42 1099.73 817.06 1099.06
  Q 842.64 1072.67 844.64 1036.74
  Q 844.75 1034.80 844.75 1016.75
  Q 844.75 836.87 844.75 657.00
  C 844.75 636.79 845.04 616.64 844.63 596.40"
/>
<path stroke="#35b7e9" vector-effect="non-scaling-stroke" d="
  M 844.63 596.40
  Q 844.67 595.89 845.04 595.25"
/>
<path stroke="#33aedd" vector-effect="non-scaling-stroke" d="
  M 844.63 596.40
  Q 832.55 614.38 816.79 628.75"
/>
<path stroke="#38a1bd" vector-effect="non-scaling-stroke" d="
  M 816.79 628.75
  Q 816.72 492.75 816.75 356.75
  Q 816.75 342.92 815.75 336.81
  C 810.28 303.50 782.41 281.46 749.00 281.75
  Q 735.19 281.87 732.18 282.06"
/>
<path stroke="#239fde" vector-effect="non-scaling-stroke" d="
  M 732.18 282.06
  Q 725.12 281.50 709.00 281.50
  Q 452.99 281.47 197.01 281.55"
/>
<path stroke="#157cb4" vector-effect="non-scaling-stroke" d="
  M 732.18 282.06
  Q 751.77 285.48 765.81 297.69
  Q 782.74 312.40 787.16 334.09
  Q 788.50 340.68 788.50 354.01
  Q 788.49 501.99 788.52 650.03"
/>
<path stroke="#086dae" vector-effect="non-scaling-stroke" d="
  M 788.52 650.03
  Q 788.46 941.61 788.50 1002.50
  Q 788.50 1009.49 787.54 1015.25"
/>
<path stroke="#0767a7" vector-effect="non-scaling-stroke" d="
  M 787.54 1015.25
  C 783.07 1042.41 762.33 1063.84 735.42 1069.05
  Q 729.25 1070.25 715.51 1070.25
  Q 455.98 1070.25 196.53 1070.25"
/>
<path stroke="#80bcea" vector-effect="non-scaling-stroke" d="
  M 339.06 639.08
  L 339.00 532.56
  A 0.75 0.75 0.0 0 1 339.75 531.81
  L 522.80 531.69
  A 0.71 0.70 90.0 0 0 523.50 530.98
  L 523.50 463.00
  A 0.50 0.50 0.0 0 0 523.00 462.50
  L 256.29 462.44
  A 0.98 0.98 0.0 0 0 255.31 463.42
  C 255.62 596.87 255.78 729.82 255.45 863.00
  Q 255.42 875.59 255.31 888.74
  A 0.75 0.75 -89.6 0 0 256.06 889.50
  L 532.74 889.56
  A 0.51 0.51 0.0 0 0 533.25 889.05
  L 533.19 821.31
  A 0.50 0.50 0.0 0 0 532.69 820.81
  L 339.78 820.75
  A 0.78 0.78 0.0 0 1 339.00 819.97
  L 339.00 709.77
  A 1.02 1.02 0.0 0 1 340.02 708.75
  L 511.38 708.75
  A 0.87 0.87 0.0 0 0 512.25 707.88
  L 512.25 640.25
  A 0.50 0.50 0.0 0 0 511.75 639.75
  L 339.73 639.75
  A 0.67 0.67 -0.1 0 1 339.06 639.08"
/>
<path stroke="#258bb3" vector-effect="non-scaling-stroke" d="
  M 816.79 628.75
  L 816.71 629.50"
/>
<path stroke="#1d6f8d" vector-effect="non-scaling-stroke" d="
  M 816.71 629.50
  Q 803.76 641.29 788.52 650.03"
/>
<path stroke="#1d90c8" vector-effect="non-scaling-stroke" d="
  M 815.71 1101.00
  Q 815.41 1100.85 815.46 1100.50"
/>
<path stroke="#1b89bf" vector-effect="non-scaling-stroke" d="
  M 815.46 1100.50
  Q 816.80 1093.59 816.75 1082.75
  Q 816.58 1047.03 816.38 1040.47"
/>
<path stroke="#187cad" vector-effect="non-scaling-stroke" d="
  M 816.38 1040.47
  Q 816.75 1035.26 816.75 1025.00
  Q 816.78 827.25 816.71 629.50"
/>
<path stroke="#146d99" vector-effect="non-scaling-stroke" d="
  M 816.38 1040.47
  C 811.90 1072.17 788.29 1095.09 756.25 1098.25
  Q 748.24 1099.04 726.00 1098.46"
/>
<path stroke="#0f5b80" vector-effect="non-scaling-stroke" d="
  M 726.00 1098.46
  C 756.04 1096.17 780.82 1076.23 787.08 1046.57
  C 788.93 1037.80 788.87 1026.44 788.75 1017.00
  Q 788.74 1015.81 787.54 1015.25"
/>
<path stroke="#126792" vector-effect="non-scaling-stroke" d="
  M 726.00 1098.46
  L 199.01 1098.50
  A 1.84 1.78 -89.7 0 0 197.23 1100.32
  L 197.04 1116.25"
/>
<path stroke="#1980b3" vector-effect="non-scaling-stroke" d="
  M 815.46 1100.50
  C 796.33 1118.43 774.64 1126.00 748.76 1126.51
  Q 736.34 1126.75 719.25 1126.75
  Q 464.88 1126.75 210.50 1126.85
  Q 204.99 1126.85 199.50 1126.56
  Q 197.30 1126.44 197.21 1128.50"
/>
</g>
<path fill="#4fdaff" d="
  M 292.31 0.00
  L 642.56 0.00
  Q 677.91 1.93 703.68 24.19
  Q 706.56 26.68 718.00 38.13
  Q 795.45 115.64 873.00 193.04
  Q 873.00 347.02 873.00 501.00
  Q 873.00 551.63 845.04 595.25
  Q 844.75 594.04 844.75 591.50
  Q 844.75 476.88 844.75 362.25
  Q 844.75 344.38 844.63 342.24
  C 841.71 291.25 800.02 253.56 749.00 253.57
  Q 473.16 253.64 197.28 253.31
  Q 197.23 175.45 197.25 99.00
  C 197.26 44.98 238.91 2.26 292.31 0.00
  Z"
/>
<path fill="#23aaeb" d="
  M 1103.31 0.00
  L 1454.31 0.00
  C 1507.23 3.61 1546.96 42.79 1549.00 95.81
  L 1549.00 444.56
  Q 1547.15 482.17 1522.85 508.96
  Q 1522.17 509.71 1508.74 523.12
  Q 1432.28 599.49 1356.00 676.04
  Q 1205.99 675.97 1055.99 676.00
  Q 1042.83 676.00 1036.02 676.53
  C 945.61 683.62 873.10 758.30 873.23 850.33
  C 873.36 953.21 872.99 1056.11 873.04 1159.00
  Q 795.80 1235.96 718.75 1313.11
  Q 706.74 1325.14 704.49 1327.12
  Q 678.25 1350.21 641.94 1352.00
  L 292.44 1352.00
  C 244.48 1349.92 205.50 1315.41 198.33 1268.19
  Q 197.25 1261.06 197.26 1248.24
  Q 197.27 1201.87 197.21 1155.50
  Q 196.97 1154.19 198.61 1154.59
  Q 199.29 1154.75 199.99 1154.75
  Q 468.12 1154.75 736.25 1154.75
  Q 754.09 1154.75 756.24 1154.58
  C 786.34 1152.20 809.43 1130.55 815.71 1101.00
  Q 816.42 1099.73 817.06 1099.06
  Q 842.64 1072.67 844.64 1036.74
  Q 844.75 1034.80 844.75 1016.75
  Q 844.75 836.87 844.75 657.00
  C 844.75 636.79 845.04 616.64 844.63 596.40
  Q 844.67 595.89 845.04 595.25
  Q 873.00 551.63 873.00 501.00
  Q 873.00 347.02 873.00 193.04
  C 926.77 140.41 971.44 94.54 1033.98 32.36
  C 1053.72 12.72 1074.79 1.58 1103.31 0.00
  Z"
/>
<path fill="#46c4e6" d="
  M 197.28 253.31
  Q 473.16 253.64 749.00 253.57
  C 800.02 253.56 841.71 291.25 844.63 342.24
  Q 844.75 344.38 844.75 362.25
  Q 844.75 476.88 844.75 591.50
  Q 844.75 594.04 845.04 595.25
  Q 844.67 595.89 844.63 596.40
  Q 832.55 614.38 816.79 628.75
  Q 816.72 492.75 816.75 356.75
  Q 816.75 342.92 815.75 336.81
  C 810.28 303.50 782.41 281.46 749.00 281.75
  Q 735.19 281.87 732.18 282.06
  Q 725.12 281.50 709.00 281.50
  Q 452.99 281.47 197.01 281.55
  L 197.28 253.31
  Z"
/>
<path fill="#0079d5" d="
  M 197.01 281.55
  Q 452.99 281.47 709.00 281.50
  Q 725.12 281.50 732.18 282.06
  Q 751.77 285.48 765.81 297.69
  Q 782.74 312.40 787.16 334.09
  Q 788.50 340.68 788.50 354.01
  Q 788.49 501.99 788.52 650.03
  Q 788.46 941.61 788.50 1002.50
  Q 788.50 1009.49 787.54 1015.25
  C 783.07 1042.41 762.33 1063.84 735.42 1069.05
  Q 729.25 1070.25 715.51 1070.25
  Q 455.98 1070.25 196.53 1070.25
  Q 138.73 1070.25 81.00 1070.25
  Q 63.71 1070.25 61.01 1070.04
  C 27.52 1067.41 2.18 1041.34 0.00 1007.69
  L 0.00 344.44
  C 2.04 314.15 22.96 288.80 52.83 282.98
  Q 59.18 281.75 72.75 281.77
  Q 134.87 281.88 197.01 281.55
  Z
  M 339.06 639.08
  L 339.00 532.56
  A 0.75 0.75 0.0 0 1 339.75 531.81
  L 522.80 531.69
  A 0.71 0.70 90.0 0 0 523.50 530.98
  L 523.50 463.00
  A 0.50 0.50 0.0 0 0 523.00 462.50
  L 256.29 462.44
  A 0.98 0.98 0.0 0 0 255.31 463.42
  C 255.62 596.87 255.78 729.82 255.45 863.00
  Q 255.42 875.59 255.31 888.74
  A 0.75 0.75 -89.6 0 0 256.06 889.50
  L 532.74 889.56
  A 0.51 0.51 0.0 0 0 533.25 889.05
  L 533.19 821.31
  A 0.50 0.50 0.0 0 0 532.69 820.81
  L 339.78 820.75
  A 0.78 0.78 0.0 0 1 339.00 819.97
  L 339.00 709.77
  A 1.02 1.02 0.0 0 1 340.02 708.75
  L 511.38 708.75
  A 0.87 0.87 0.0 0 0 512.25 707.88
  L 512.25 640.25
  A 0.50 0.50 0.0 0 0 511.75 639.75
  L 339.73 639.75
  A 0.67 0.67 -0.1 0 1 339.06 639.08
  Z"
/>
<path fill="#2a7e93" d="
  M 732.18 282.06
  Q 735.19 281.87 749.00 281.75
  C 782.41 281.46 810.28 303.50 815.75 336.81
  Q 816.75 342.92 816.75 356.75
  Q 816.72 492.75 816.79 628.75
  L 816.71 629.50
  Q 803.76 641.29 788.52 650.03
  Q 788.49 501.99 788.50 354.01
  Q 788.50 340.68 787.16 334.09
  Q 782.74 312.40 765.81 297.69
  Q 751.77 285.48 732.18 282.06
  Z"
/>
<path fill="#ffffff" d="
  M 339.06 639.08
  A 0.67 0.67 -0.0 0 0 339.73 639.75
  L 511.75 639.75
  A 0.50 0.50 0.0 0 1 512.25 640.25
  L 512.25 707.88
  A 0.87 0.87 0.0 0 1 511.38 708.75
  L 340.02 708.75
  A 1.02 1.02 0.0 0 0 339.00 709.77
  L 339.00 819.97
  A 0.78 0.78 0.0 0 0 339.78 820.75
  L 532.69 820.81
  A 0.50 0.50 0.0 0 1 533.19 821.31
  L 533.25 889.05
  A 0.51 0.51 0.0 0 1 532.74 889.56
  L 256.06 889.50
  A 0.75 0.75 -89.6 0 1 255.31 888.74
  Q 255.42 875.59 255.45 863.00
  C 255.78 729.82 255.62 596.87 255.31 463.42
  A 0.98 0.98 0.0 0 1 256.29 462.44
  L 523.00 462.50
  A 0.50 0.50 0.0 0 1 523.50 463.00
  L 523.50 530.98
  A 0.71 0.70 90.0 0 1 522.80 531.69
  L 339.75 531.81
  A 0.75 0.75 0.0 0 0 339.00 532.56
  L 339.06 639.08
  Z"
/>
<path fill="#1f98d3" d="
  M 844.63 596.40
  C 845.04 616.64 844.75 636.79 844.75 657.00
  Q 844.75 836.87 844.75 1016.75
  Q 844.75 1034.80 844.64 1036.74
  Q 842.64 1072.67 817.06 1099.06
  Q 816.42 1099.73 815.71 1101.00
  Q 815.41 1100.85 815.46 1100.50
  Q 816.80 1093.59 816.75 1082.75
  Q 816.58 1047.03 816.38 1040.47
  Q 816.75 1035.26 816.75 1025.00
  Q 816.78 827.25 816.71 629.50
  L 816.79 628.75
  Q 832.55 614.38 844.63 596.40
  Z"
/>
<path fill="#106087" d="
  M 816.71 629.50
  Q 816.78 827.25 816.75 1025.00
  Q 816.75 1035.26 816.38 1040.47
  C 811.90 1072.17 788.29 1095.09 756.25 1098.25
  Q 748.24 1099.04 726.00 1098.46
  C 756.04 1096.17 780.82 1076.23 787.08 1046.57
  C 788.93 1037.80 788.87 1026.44 788.75 1017.00
  Q 788.74 1015.81 787.54 1015.25
  Q 788.50 1009.49 788.50 1002.50
  Q 788.46 941.61 788.52 650.03
  Q 803.76 641.29 816.71 629.50
  Z"
/>
<path fill="#0079d5" d="
  M 1356.00 676.04
  Q 1436.16 756.16 1516.13 836.48
  Q 1525.45 845.83 1529.51 851.30
  Q 1547.65 875.77 1549.00 907.31
  L 1549.00 1256.31
  C 1546.82 1309.45 1506.42 1349.31 1453.44 1352.00
  L 1104.19 1352.00
  Q 1075.66 1350.76 1052.47 1335.46
  C 1043.49 1329.53 1036.31 1322.04 1028.00 1313.75
  Q 950.50 1236.40 873.04 1159.00
  C 872.99 1056.11 873.36 953.21 873.23 850.33
  C 873.10 758.30 945.61 683.62 1036.02 676.53
  Q 1042.83 676.00 1055.99 676.00
  Q 1205.99 675.97 1356.00 676.04
  Z"
/>
<path fill="#0d5579" d="
  M 787.54 1015.25
  Q 788.74 1015.81 788.75 1017.00
  C 788.87 1026.44 788.93 1037.80 787.08 1046.57
  C 780.82 1076.23 756.04 1096.17 726.00 1098.46
  L 199.01 1098.50
  A 1.84 1.78 -89.7 0 0 197.23 1100.32
  L 197.04 1116.25
  Q 197.32 1093.29 196.53 1070.25
  Q 455.98 1070.25 715.51 1070.25
  Q 729.25 1070.25 735.42 1069.05
  C 762.33 1063.84 783.07 1042.41 787.54 1015.25
  Z"
/>
<path fill="#1779aa" d="
  M 816.38 1040.47
  Q 816.58 1047.03 816.75 1082.75
  Q 816.80 1093.59 815.46 1100.50
  C 796.33 1118.43 774.64 1126.00 748.76 1126.51
  Q 736.34 1126.75 719.25 1126.75
  Q 464.88 1126.75 210.50 1126.85
  Q 204.99 1126.85 199.50 1126.56
  Q 197.30 1126.44 197.21 1128.50
  L 197.04 1116.25
  L 197.23 1100.32
  A 1.84 1.78 -89.7 0 1 199.01 1098.50
  L 726.00 1098.46
  Q 748.24 1099.04 756.25 1098.25
  C 788.29 1095.09 811.90 1072.17 816.38 1040.47
  Z"
/>
<path fill="#1a87bc" d="
  M 815.46 1100.50
  Q 815.41 1100.85 815.71 1101.00
  C 809.43 1130.55 786.34 1152.20 756.24 1154.58
  Q 754.09 1154.75 736.25 1154.75
  Q 468.12 1154.75 199.99 1154.75
  Q 199.29 1154.75 198.61 1154.59
  Q 196.97 1154.19 197.21 1155.50
  L 197.21 1128.50
  Q 197.30 1126.44 199.50 1126.56
  Q 204.99 1126.85 210.50 1126.85
  Q 464.88 1126.75 719.25 1126.75
  Q 736.34 1126.75 748.76 1126.51
  C 774.64 1126.00 796.33 1118.43 815.46 1100.50
  Z"
/>
</svg>
